<mxfile modified="2024-06-26T05:21:39.739Z" host="app.diagrams.net" agent="Mozilla/5.0 (Windows NT 10.0; Win64; x64) AppleWebKit/537.36 (KHTML, like Gecko) Chrome/126.0.0.0 Safari/537.36 Edg/126.0.0.0" etag="611MNhcU3Q-IJlxcvcLs" version="24.4.13" type="github">
  <diagram id="l8hXMBHkgcEJcSW0mbfh" name="Page-1">
    <mxGraphModel dx="2366" dy="1196" grid="1" gridSize="10" guides="1" tooltips="1" connect="1" arrows="1" fold="1" page="1" pageScale="1" pageWidth="1169" pageHeight="827" background="none" math="0" shadow="0">
      <root>
        <mxCell id="0" />
        <mxCell id="1" parent="0" />
        <mxCell id="HJctW9A064tmooR44P-Z-25" value="Virtual Host PC" style="rounded=1;whiteSpace=wrap;html=1;verticalAlign=top;" parent="1" vertex="1">
          <mxGeometry x="-1150" y="110" width="790" height="550" as="geometry" />
        </mxCell>
        <mxCell id="HjCkSi2J4U26lbaqlSwR-9" style="edgeStyle=orthogonalEdgeStyle;rounded=0;orthogonalLoop=1;jettySize=auto;html=1;entryX=0.5;entryY=0;entryDx=0;entryDy=0;" parent="1" source="HjCkSi2J4U26lbaqlSwR-5" target="HjCkSi2J4U26lbaqlSwR-2" edge="1">
          <mxGeometry relative="1" as="geometry">
            <Array as="points">
              <mxPoint x="-679" y="480" />
              <mxPoint x="-755" y="480" />
            </Array>
          </mxGeometry>
        </mxCell>
        <mxCell id="HjCkSi2J4U26lbaqlSwR-5" value="KALI&#xa;&#xa;&#xa;" style="swimlane;startSize=75;whiteSpace=wrap;verticalAlign=middle;labelPosition=center;verticalLabelPosition=middle;align=center;" parent="1" vertex="1">
          <mxGeometry x="-730" y="150" width="102" height="310" as="geometry" />
        </mxCell>
        <mxCell id="HJctW9A064tmooR44P-Z-28" value="KALI&lt;div&gt;192.168.20.3&lt;/div&gt;&lt;div&gt;&lt;span style=&quot;background-color: initial;&quot;&gt;&lt;br&gt;&lt;/span&gt;&lt;/div&gt;&lt;div&gt;&lt;span style=&quot;background-color: initial;&quot;&gt;CPU:2&lt;/span&gt;&lt;/div&gt;&lt;div&gt;&lt;span style=&quot;background-color: initial;&quot;&gt;RAM:4GB&lt;/span&gt;&lt;/div&gt;&lt;div&gt;&lt;span style=&quot;background-color: initial;&quot;&gt;HDD:80GB&lt;/span&gt;&lt;/div&gt;" style="shadow=0;dashed=0;html=1;labelPosition=center;verticalLabelPosition=bottom;verticalAlign=top;align=center;outlineConnect=0;shape=mxgraph.veeam.3d.vm_linux;" parent="HjCkSi2J4U26lbaqlSwR-5" vertex="1">
          <mxGeometry x="28" y="80.75" width="46" height="60" as="geometry" />
        </mxCell>
        <mxCell id="HjCkSi2J4U26lbaqlSwR-12" style="edgeStyle=orthogonalEdgeStyle;rounded=0;orthogonalLoop=1;jettySize=auto;html=1;entryX=0.5;entryY=0;entryDx=0;entryDy=0;" parent="1" source="swCvWvZ0N3fAcbbuVvZp-5" edge="1" target="HjCkSi2J4U26lbaqlSwR-2">
          <mxGeometry relative="1" as="geometry">
            <mxPoint x="-812" y="500" as="targetPoint" />
            <Array as="points">
              <mxPoint x="-812" y="480" />
              <mxPoint x="-755" y="480" />
            </Array>
          </mxGeometry>
        </mxCell>
        <mxCell id="swCvWvZ0N3fAcbbuVvZp-5" value="Wazah" style="rounded=1;whiteSpace=wrap;html=1;verticalAlign=top;fillColor=#dae8fc;strokeColor=#6c8ebf;" parent="1" vertex="1">
          <mxGeometry x="-872" y="147" width="120" height="320" as="geometry" />
        </mxCell>
        <mxCell id="HJctW9A064tmooR44P-Z-27" value="Ubuntu Desktop&lt;div&gt;192.168.20.4&lt;br&gt;&lt;/div&gt;&lt;div&gt;&lt;span style=&quot;background-color: initial;&quot;&gt;&lt;br&gt;&lt;/span&gt;&lt;/div&gt;&lt;div&gt;&lt;span style=&quot;background-color: initial;&quot;&gt;CPU:4&lt;/span&gt;&lt;/div&gt;&lt;div&gt;&lt;span style=&quot;background-color: initial;&quot;&gt;RAM:4GMB&lt;/span&gt;&lt;/div&gt;&lt;div&gt;&lt;span style=&quot;background-color: initial;&quot;&gt;HDD:80GB&lt;/span&gt;&lt;/div&gt;" style="shadow=0;dashed=0;html=1;labelPosition=center;verticalLabelPosition=bottom;verticalAlign=top;align=center;outlineConnect=0;shape=mxgraph.veeam.3d.vm_linux;" parent="1" vertex="1">
          <mxGeometry x="-835" y="270" width="46" height="60" as="geometry" />
        </mxCell>
        <mxCell id="HjCkSi2J4U26lbaqlSwR-8" style="edgeStyle=orthogonalEdgeStyle;rounded=0;orthogonalLoop=1;jettySize=auto;html=1;entryX=0.5;entryY=0;entryDx=0;entryDy=0;" parent="1" source="HJctW9A064tmooR44P-Z-37" target="HjCkSi2J4U26lbaqlSwR-2" edge="1">
          <mxGeometry relative="1" as="geometry">
            <Array as="points">
              <mxPoint x="-949" y="480" />
              <mxPoint x="-755" y="480" />
            </Array>
          </mxGeometry>
        </mxCell>
        <mxCell id="HJctW9A064tmooR44P-Z-37" value="LL_WinClient_01&#xa;&#xa;&#xa;Event Log" style="swimlane;startSize=75;whiteSpace=wrap;verticalAlign=middle;labelPosition=center;verticalLabelPosition=middle;align=center;" parent="1" vertex="1">
          <mxGeometry x="-1000" y="150" width="102" height="310" as="geometry" />
        </mxCell>
        <mxCell id="HJctW9A064tmooR44P-Z-32" value="Windows 10&lt;div&gt;DHCP Lease&lt;/div&gt;&lt;div&gt;&lt;span style=&quot;background-color: initial;&quot;&gt;&lt;br&gt;&lt;/span&gt;&lt;/div&gt;&lt;div&gt;&lt;span style=&quot;background-color: initial;&quot;&gt;CPU:4&lt;/span&gt;&lt;br&gt;&lt;/div&gt;&lt;div&gt;&lt;span style=&quot;background-color: initial;&quot;&gt;RAM:4GB&lt;/span&gt;&lt;/div&gt;&lt;div&gt;&lt;span style=&quot;background-color: initial;&quot;&gt;HDD:60GB&lt;/span&gt;&lt;/div&gt;" style="shadow=0;dashed=0;html=1;labelPosition=center;verticalLabelPosition=bottom;verticalAlign=top;align=center;outlineConnect=0;shape=mxgraph.veeam.3d.vm_windows;" parent="HJctW9A064tmooR44P-Z-37" vertex="1">
          <mxGeometry x="28" y="80" width="46" height="60" as="geometry" />
        </mxCell>
        <mxCell id="HJctW9A064tmooR44P-Z-43" value="SIEM" style="shape=datastore;whiteSpace=wrap;html=1;" parent="1" vertex="1">
          <mxGeometry x="-842" y="190" width="60" height="60" as="geometry" />
        </mxCell>
        <mxCell id="HJctW9A064tmooR44P-Z-51" value="V1.1.4" style="shape=callout;whiteSpace=wrap;html=1;perimeter=calloutPerimeter;" parent="1" vertex="1">
          <mxGeometry x="-872" y="10" width="120" height="80" as="geometry" />
        </mxCell>
        <mxCell id="HjCkSi2J4U26lbaqlSwR-7" style="edgeStyle=orthogonalEdgeStyle;rounded=0;orthogonalLoop=1;jettySize=auto;html=1;entryX=0.5;entryY=0;entryDx=0;entryDy=0;" parent="1" source="HJctW9A064tmooR44P-Z-54" target="HjCkSi2J4U26lbaqlSwR-2" edge="1">
          <mxGeometry relative="1" as="geometry">
            <Array as="points">
              <mxPoint x="-1069" y="480" />
              <mxPoint x="-755" y="480" />
            </Array>
          </mxGeometry>
        </mxCell>
        <mxCell id="HJctW9A064tmooR44P-Z-54" value="So many things to monitor / collect" style="swimlane;startSize=75;whiteSpace=wrap;verticalAlign=middle;labelPosition=center;verticalLabelPosition=middle;align=center;" parent="1" vertex="1">
          <mxGeometry x="-1120" y="150" width="102" height="310" as="geometry" />
        </mxCell>
        <mxCell id="HJctW9A064tmooR44P-Z-30" value="Metasploitable&lt;br&gt;&lt;div&gt;&lt;span style=&quot;background-color: initial;&quot;&gt;192.168.20.6&lt;/span&gt;&lt;/div&gt;&lt;div&gt;&lt;span style=&quot;background-color: initial;&quot;&gt;&lt;br&gt;&lt;/span&gt;&lt;/div&gt;&lt;div&gt;&lt;span style=&quot;background-color: initial;&quot;&gt;CPU:1&lt;/span&gt;&lt;/div&gt;&lt;div&gt;&lt;span style=&quot;background-color: initial;&quot;&gt;RAM:512MB&lt;/span&gt;&lt;/div&gt;&lt;div&gt;&lt;span style=&quot;background-color: initial;&quot;&gt;HDD:8GB&lt;/span&gt;&lt;/div&gt;" style="shadow=0;dashed=0;html=1;labelPosition=center;verticalLabelPosition=bottom;verticalAlign=top;align=center;outlineConnect=0;shape=mxgraph.veeam.3d.vm_linux;" parent="HJctW9A064tmooR44P-Z-54" vertex="1">
          <mxGeometry x="28" y="80" width="46" height="60" as="geometry" />
        </mxCell>
        <mxCell id="swCvWvZ0N3fAcbbuVvZp-1" value="Raspian&lt;div&gt;192.168.20.5&lt;br&gt;&lt;/div&gt;&lt;div&gt;&lt;span style=&quot;background-color: initial;&quot;&gt;&lt;br&gt;&lt;/span&gt;&lt;/div&gt;&lt;div&gt;&lt;span style=&quot;background-color: initial;&quot;&gt;CPU:2&lt;/span&gt;&lt;/div&gt;&lt;div&gt;&lt;span style=&quot;background-color: initial;&quot;&gt;RAM:2GB&lt;/span&gt;&lt;/div&gt;&lt;div&gt;&lt;span style=&quot;background-color: initial;&quot;&gt;HDD:20GB&lt;/span&gt;&lt;/div&gt;" style="shadow=0;dashed=0;html=1;labelPosition=center;verticalLabelPosition=bottom;verticalAlign=top;align=center;outlineConnect=0;shape=mxgraph.veeam.3d.vm_linux;" parent="1" vertex="1">
          <mxGeometry x="-582" y="230" width="46" height="60" as="geometry" />
        </mxCell>
        <mxCell id="HjCkSi2J4U26lbaqlSwR-10" style="edgeStyle=orthogonalEdgeStyle;rounded=0;orthogonalLoop=1;jettySize=auto;html=1;entryX=0.5;entryY=0;entryDx=0;entryDy=0;" parent="1" source="swCvWvZ0N3fAcbbuVvZp-2" target="HjCkSi2J4U26lbaqlSwR-2" edge="1">
          <mxGeometry relative="1" as="geometry">
            <Array as="points">
              <mxPoint x="-567" y="480" />
              <mxPoint x="-755" y="480" />
            </Array>
          </mxGeometry>
        </mxCell>
        <mxCell id="swCvWvZ0N3fAcbbuVvZp-2" value="Raspbian Desktop&#xa;&#xa;DVWA on XAMPP" style="swimlane;startSize=75;whiteSpace=wrap;verticalAlign=middle;labelPosition=center;verticalLabelPosition=middle;align=center;" parent="1" vertex="1">
          <mxGeometry x="-610" y="150" width="102" height="310" as="geometry" />
        </mxCell>
        <mxCell id="HjCkSi2J4U26lbaqlSwR-2" value="Host Only (VMnet1)&lt;div&gt;Connect a host virtual adapter (DISABLED)&lt;/div&gt;&lt;div&gt;Use local DHCP service (DISABLED)&lt;/div&gt;&lt;div&gt;Subnet IP 192.168.20.0 / 24&lt;/div&gt;" style="image;html=1;image=img/lib/clip_art/networking/Router_Icon_128x128.png;align=center;" parent="1" vertex="1">
          <mxGeometry x="-795" y="500" width="80" height="80" as="geometry" />
        </mxCell>
        <mxCell id="9VRJLxWaMSqpoo6wqOYs-1" value="Debian&lt;div&gt;192.168.20.2&lt;br&gt;&lt;/div&gt;&lt;div&gt;&lt;span style=&quot;background-color: initial;&quot;&gt;&lt;br&gt;&lt;/span&gt;&lt;/div&gt;&lt;div&gt;&lt;span style=&quot;background-color: initial;&quot;&gt;CPU:4&lt;/span&gt;&lt;/div&gt;&lt;div&gt;&lt;span style=&quot;background-color: initial;&quot;&gt;RAM:4GB&lt;/span&gt;&lt;/div&gt;&lt;div&gt;&lt;span style=&quot;background-color: initial;&quot;&gt;HDD:80GB&lt;/span&gt;&lt;/div&gt;&lt;div&gt;&lt;span style=&quot;background-color: initial;&quot;&gt;&lt;br&gt;&lt;/span&gt;&lt;/div&gt;&lt;div&gt;&lt;span style=&quot;background-color: initial;&quot;&gt;DHCP&amp;nbsp;&lt;/span&gt;&lt;/div&gt;&lt;div&gt;&lt;span style=&quot;background-color: initial;&quot;&gt;(20.10 -&amp;gt; 20.30)&lt;/span&gt;&lt;/div&gt;&lt;div&gt;&lt;span style=&quot;background-color: initial;&quot;&gt;&lt;br&gt;&lt;/span&gt;&lt;/div&gt;" style="shadow=0;dashed=0;html=1;labelPosition=center;verticalLabelPosition=bottom;verticalAlign=top;align=center;outlineConnect=0;shape=mxgraph.veeam.3d.vm_linux;" vertex="1" parent="1">
          <mxGeometry x="-464" y="230" width="46" height="60" as="geometry" />
        </mxCell>
        <mxCell id="9VRJLxWaMSqpoo6wqOYs-2" value="Debian Server&#xa;&#xa;&#xa;DHCP" style="swimlane;startSize=75;whiteSpace=wrap;verticalAlign=middle;labelPosition=center;verticalLabelPosition=middle;align=center;" vertex="1" parent="1">
          <mxGeometry x="-492" y="150" width="102" height="310" as="geometry" />
        </mxCell>
        <mxCell id="9VRJLxWaMSqpoo6wqOYs-4" style="edgeStyle=orthogonalEdgeStyle;rounded=0;orthogonalLoop=1;jettySize=auto;html=1;entryX=0.5;entryY=0;entryDx=0;entryDy=0;exitX=0.5;exitY=1;exitDx=0;exitDy=0;" edge="1" parent="1" source="9VRJLxWaMSqpoo6wqOYs-2" target="HjCkSi2J4U26lbaqlSwR-2">
          <mxGeometry relative="1" as="geometry">
            <Array as="points">
              <mxPoint x="-440" y="460" />
              <mxPoint x="-440" y="480" />
              <mxPoint x="-755" y="480" />
            </Array>
            <mxPoint x="-567" y="460" as="sourcePoint" />
            <mxPoint x="-812" y="500" as="targetPoint" />
          </mxGeometry>
        </mxCell>
        <mxCell id="9VRJLxWaMSqpoo6wqOYs-6" value="" style="shape=image;verticalLabelPosition=bottom;labelBackgroundColor=default;verticalAlign=top;aspect=fixed;imageAspect=0;image=data:image/png,iVBORw0KGgoAAAANSUhEUgAAAlsAAAIRCAYAAAB9Bnh7AAAAAXNSR0IArs4c6QAAAARnQU1BAACxjwv8YQUAAAAJcEhZcwAADsMAAA7DAcdvqGQAAJA1SURBVHhe7f0LeBXXme8JvwJsY+KLIi4BJ32S6AJoGzJB35hwOzj99UhcFNooM6JzZvLFch/HoPQMEZ1AWul4umecz3RDui0zk4Adn0b24zNJo+4IHyJu6pwT0zYQkpbdDZYsdMnd2BZgOXEM5qZ531Vr7b2qdtXetaVd0t7S/8ez2FWrVq171frXu5aqCu6+++4hspgyZQq9733vo5tvvlm5SZMm6SMAAAAAAMDL9evX6cqVK8q9++67dO3aNX3EwSW2brvtNpoxYwZ9+tOfpuLiYvroRz9K06dP10cBAAAAAICXCxcu0E9/+lPq7++n1tZWOn/+PP32t7/VRy2xJaLq3//7f0/3338/zZkzRx0EAAAAAADhOXfuHD399NN0/PhxGhgYoKGhIZo8a9asvxSL1ic/+UlqbGyk22+/XQcHAAAAAACZIDpqxYoV9POf/5x+/etfq6nFSbJGS6YO6+rqdDAAAAAAADASZKZQ9JXorEmyGF7WaGHqEAAAAAAgO4iuqqmpoWnTptGkm266SS2GBwAAAAAA2UP0lXqzg/wnf3WYKe9eJ+o4/x5tPH6B/uT4ebUtfgAAAAAAgJS+UmJr8uTJGb/e4UcD79F//9yvaP0/vUnP/ex39EzvO1R99A3l9/zrl3UoAAAAAICJi+gr0VkZv7H0/+l7h/6HQ+eofv4d9IFpk+kXn/k9uvDZD9NNkwto07zbqfa/vknP9v1OhwYAAAAAmNhkJLZ+9s51avzJW/ST+z5Iv3r3Om346Pvo5kkFyv1vsTvo15du0LHqOVT/4oAKCwAAAACQT/zDP/wjnXv9db2XjBz7h3/8R70XjoLVq1cPtbS06N3UfKr9TXr+3Lt6LzX3zplG36+cpff82b9/P33wgx+ke+65R/s4fPe736WPf/zj6h0Vly5dovXr1+sj2eWf//mf1a+8zNVGXkh26NAhWrhwoStvP/7xj+nixYu0atUq7TP6SN6ef/55+sxnPqN9/JG6lbwaysrKksopHDlyhIqKilQ5pd6lPfzCAQAAABMBEVPP//CHdO8nP0lzZs/Wvg6pjgVRW1ubmWVr8Mp1+m/Vd9FvP/cRmnnrZOrd8HtqW5xsi59s/5DDvPVeesuWDOzywi+bV199laZOnUrz589XoiZIaEk4ERRRcvr0ab2VGZIvyd9Ys2zZMvrjP/5j5cIIKBFwJpyIMBGXAAAAwERCRJSIKRFVtoVrOELLkJHYOvv2VfrY+29S24NXbtDMqZPVtiDb4ics5DA9v7mqtlMh1hTb+iKINSsXvsco78UQa5CIDgAAAABMHLyCayRCS5hcWlr6lxs2bNC7qXnuF+/Sohm30F3TJtMT3b+l/1ByG902xdFrb16+Tv+57x364t130ssXr9KpgffoP85N/+kfEVfysUaxcgk/+clPqKKiQr3uXqb5fvGLX9CHP/xhJXpkCu0HP/gB/epXv6Lu7m41xfjSSy+pr2vLxx9NWME+V7blPAkrbjZXlMQvxwVzjuGdd95R+aqurlb5MW/Zf+2111SaXGcqnOTp2LFjKs4333xT+Zvpu1/+8pcqj729vSqsnC/5lynbRYsWKT9v+Uxc4kwYsZC98MIL6vfll1+mj3zkIypvCxYsiMcn+fWWQcJLmuK8/N3f/Z1KQ/J36623Kif1byyF//Iv/6IsjlImOy/mPHGmvIKcJ99/kjqWtjBtCQAAAOQrt992G03nMVRE1s9/9rNhCy0ZpzOybBXePJl+v+01uv2Zn9HApetUuu+XalucbIufbH+Sw7z/loTVKxUyMBvrlggEmUIMepu9CACZElu3bp2aIpO1RrLvXfPlRabGzHSarMP6t3/7N30kPbJ2TESOFxFKYv0y8QqSf5n2lHxJ/mRaTsonQkQQ4SXnSDhBvhIugkXiEhFn51HWTxmkfmRa1btOS9aVSTpBU4TyEUwRSOJMmhKvxC/p3HvvvUnTuIJM30q+TTjBPk+c5FfybZCyiH+6tgAAAAAmGhmJrf97qTO99+P7PkhfiN1J//ui98fXbMm2+MlfKhax0DJh0yGDsxnwRZSksoqUlJTorcwxoiPTdVgict7//ve7hIUg4qKnpycer5TBiCqbD33oQ/HyyTlm4b9YpQQRluIv6RiMYDFhRLzZxwURPyK0vP429potCWfiM/FL2mGsUN7zBIlP8m1IlQ8AAAAg37CnDu0pxeGQkdj6yG2T6VvLZ9LKtnP0oWmTaVfn23TlxpByLT/9HX2Q/f77535Nf3XP+1XYsMiAL5YXESUiTrKNiKE1a9Yo0SHWmUwRS48IK5l6tLHFjDg/C5MIGrHWGcuSiJK33npLTYWmW5sWZOF7913nL0L9xF06JC/ZQqYfAQAAgPGGd42Wdw1XpmQktoT/X8n7qOX/O4t2v/obunadaPqzP6d/991f0uvvXqc97PdPa+bQfyi+TYcOh1huZKou1RSilzvvvJMuX068rV7OtS0t3ukxE6/XPyyyWN6eThShZASUFxEhsg7NYMIaK5JYyiQfM2fOVPveuOSvAFOJIpmKlClFiSOTvxiUOpApSZOWWKyC6kPSMPVr6s5OS+KQdgMAAADGE0GL4UciuDIWW8K9s6fST+77ELVVfYAWfYioZNZ12v8/zFJ+n5h5iw4VHpmeEmtNmCktgxEAYrUSESBxiDgw03oiaAwSr/EfrjXGa7Uy+yZecfa0n0xXmnVXIqpE5BirnRyXvJqpN4lL8mXi6evrC/VuMRFckk7QKzDsNVsmjFjjjL+8ryuoziXPZppUMGmZ+EQg2tOKAAAAwHjgxRdfTBJaBiO4XnzhRe0TjoxeaurH9nPOX9s1znH+Mg0AAAAAADhk/FLT239yUDl7+9Ffn1XO7xgAAAAAwERnxJYtAAAAAADgT8aWLQAAAAAAkBkQWwAAAAAAEQKxBQAAAAAQIRBbAAAAAAARArEFAAAAABAhEFsAAAAAABECsQUAAAAAECEQWwAAAAAAEaJeamq+4QcAAAAAALKHfFsYli0AAAAAgAiB2AIAAAAAiBCILQAAAACACIHYAgAAAACIEIgtAAAAAIAIgdgCAAAAAIgQiC0AAAAAgAiB2AIAAAAAiJDQLzXdtbtZbwEAAAAAgM31dXorGHmpaUZi6+E/+6LeAwAAAACYuDzyV4+HFluYRkzBa6+9prcmBhOtvCC3QP/LLXD/A2PJeGsPiC0AAAAAgAiB2AIAAAAAiBCILQAAAACACIHYAgAAAACIEIgtAAAAAIAIgdgCAAAAAIgQiC2Qv/Q+TsuXP069ehcAAMacXLsvBeUH989RJWtia3lBAS1/3Gq2cd6QBVxer3OVf5wh7esu73JKWdyxbv9DG9353XhIHxgD7LrADW5YJNXZcOsx3XnoN6Hw3g/i1eSXT6+fXx1LGNuvYCONYc0n48nfqN3r07Z7Lz2+nPOUQ30D+JM9y9ayh2jBvvtTD8DjiKGhIRrqaaJly5qoR7bZvfjFUn10HGKV03EvUq4Wt/fx5VSwluigld+DtD83bt6lX6QXX/wijeOekreg32SAfT/g++CZtZbgSkHKOrbjPEi0NocExMayfbShx+T5IC3o7NFHxpjeNtpHD/G/fdQGtZXTZHEaMUZbv7aAGnYmX3HqAos/FWiLiFLsG2mjqHL233hIK3S17ZynwnjPy2mcMiRuOodoo+T7kLus+V1GGymf9ZSnyiJl4Hq4v4GOH2+gMnPcr5yqDzxOj28UP36Sde07ztSTbx/ypZfa9hE19TxBa7SPsOYJve/Kh356Dko3RX7c8dj5ceokEd5TFxs3qjhV8EzyAoLxq0flbfUZVec+/TIO+s2wESEoguvr6cRRmjq2WbOeHjreSTkiaZgFNDeudNfQE09wjnWdx8vs2u+knfH7vd/9ztNGrjY1/SJVf3XolQrdsJXWLzhO+2y1ZcdXxnFob19/V76s/mTCWf00+Zry9wPJZHfN1pon+CllbdJFXvrFF+NPMUMHLUF2/AzFnha/h+jJtfcTmW110fLNp6yTvmbO69lA++7P9YYspS9+jfO/X5fv0H568qGv0RfLeNuUVdWBlFc6dR6VUV/w7ouKbzp8k+UG5ZLIjUGe/sTixfXwdMLq9+IXe4LLyfF2rhd/fcON77OL94UUfciLPOkdt2+MNlLfDbTgoBNPT9MZWms6a0C6/v5B7cZ1sFw9tjv+7J5Y46mLrTGV3LDyMpHhOnH1v/gAElCPPFjc37AgbkE5uEAGbm+/tDoJ+s3IKJ1LC4w4CmqrlHXspvfxr9OTy2Ikt85cYP1DT9JaKYup63RY93t1i0y639ltFNQvUvRXhSNeN1SXsjZ9iI7va9Pt7e4jagYmpT8Tz5fchwPy43dN+V5nwI+sL5Bfs9XnCcdWyWufJDpz1jm+bANxPyEqi3GHsrblWO9ZOkO6g5sLNqeedAKQJ7InHbP4of1P0kPr9TObKZ8gYbh0Zw/lURn1Ba8uPnFmSoOfap+WG35BGe3b8LT/1GKqtuR4t9qPtfa+6QtCUB/yI+gmLfmw4i+t3kDLdFsFpuvnH1QeZdL3lCeI4eRlIsN14up/ZqAIqkcZ/FUbOU/qvtYTL+g32YHz4dtWQioBZYm0sn0bqCeHpk3XPKHLsn6/03bpRJd1v1dt5He/S9cvVKAUqH6j01GWQD2V6OkjcYL8Bds/KD9+19RwrrMJStbFlhp8N+yjnW16XwZJe77bvvDS4b1ojfUjp1mjnoL2HzpE+598iIzWCiQvy+imdO4CvZWCkZQzkz6knrBHYf3COGi38c0aekK1y3rarwYNPT0SBPrNyFADeRpLVLo6tusmV9c1rnmC83cw/kCdNYbRL2QK0UwxFhSsZcnjmUocCb758bumMrzOJjDZF1tM6Re/RtTAaljv2ypfdRBnMzXqwmygoNmiXEZZ99aupTNNW/0vGJlelDpZk79lTHCINqoZkIO0oMHzBxLm6SwbbRm6D60hrn5qKHNf9Ic28r4nHyqeh9b7t1EqgspTWs3PmQHl9D6pZisvE52gemSBvlF1RhkMeqhp2Rk6a/qmr9UA/Wb46Ompr6UTSCnqWG/nKsttS5YtLK32UW2ht23StlFQvzD49leZQjxOD1lTzzItqaYSVXwJURvPV5C/l6D8+F1Th1JcZ8BFJGJLVTw3vKL0i/S1BQnz8P2dC0JatjiOHuevXJQpU1y+LL6Tm+eyZWouPQ533vg6BhEn6sktj8po5185WTTJN1lVGP3UI2upzI1U2l2vc1j+eNnIyplhH5L1XWoti0mL3VqSm527vstkrYEsdM2YoHZz1ljY/uoebdfFzk4niqzlZaITUI88YHBn1O1gTXG7+qW7B6LfZIDrfvB1ivXIOjN9LAXBdZzbbDizNp7fArGyP833b24fZwmF4++6L1n1o6ZEU1ZOUL9ggvqr39RzfCqR41P3Ym++gvy9BOTH75paE3CdgSQKVq9ePfTd735X7waza3czPfxnX9R7E4PXXnuN7rrrLr2XAfIema/HEmsOZBpM1v/nqmlcM+zyApAF0P9yi4nWHuh/uUU+tMcjf/U4ba6v03vBfOYzn4nKsjWxUQvj05rUAQAAADARgNiKAPnLFZfVuBQvsgQAAAAmKhBbAAAAAAARArEFAAAAABAhEFsAAAAAABECsQUAAAAAECEQWwAAAAAAEQKxlYKJ9s4VvGMGjCXof7kF7n9gLBlv7QGxBQAAAAAQIRBbAAAAAAARArEFAAAAABAhEFtjQW8TLVvWNPIPTmcrntEmKd+91LSsgArsL+t7ke9NFiyjpqgLO5p1Ol7TAgAA4CJrYit58OSB8RDf4OVr4J5B9NBG9hvujT9p0DhEG82XyQs28t7ooMplOV+dMI4GuER509TxMMrc2/Q52rLwIA1t7fbUqyWu1jxBQwcX0pbP+cQtabrOC2iP4RJ1/Dbe+lNp2yJT+ju3wTDqGQAAwNiQNbG1gfbR982dv/f7vLeBPlXG20sfoodOP5IYLHiQeOT0Ulqqd0fKoY1riQ4O0dDQEPU8dprWRjYKelj6GPVwmpLuUM9jdPoRn4GvtIGOH28YF99EPM5lXKrK/ATZn30cOYdo5xaix7bqWF31yr2qzBJ3a7bSY7SFdvo1sbc91mZZEIVp72xQOo8WnuiiHr3b+/19nDZRV9yjm04vLaeycdS3AABgvJM1sfWpDUT7jNrq6WL19Sk9EJTTeuvYIR5ZF25gD0E/nTeJpctrMVBP9MbfPNn3UtPnttCJE1uojP2XNTXR/icfovV6nC7lTCw93T36T/tc3hML51Gpqzwe64NdnjIugzqRcZWTnV9427IRFM9oosuV3G7e9uFMB5XDcGg/PbmUhbmfahDhoTcdSrmfLaXT3d5IPIgQMYJI5zV+hrXf27Qsnv+MpihNe/OmbxyB9aOPmfC+7beG1j90mkwRe7oW0sMPL0yU2VxbphyutLQwtdPwK1fAcVdZ/OpI+wEAAMiMrImt0nkL6YR+/D60/0laOC8xepY1PEwLt+xU4uOR04/R1k/pAwIPzF3rtcXg4EP0pLIYHKKNZV30cNySsIH2qemjUmp4xlhYhuh4wzwdicZjFYgULSjUILT2dMIyEy+PbQGS8rDI1BY4sYw4lr1U/n7lDwo/Bvi2m7d9egLKkaC3+zQtjQtzD0qIlZMYSA12P0tJiL5Q2nDcyZcqw0La4msy0wS0d2Acgf06ffuVlZuHk17q5oeVsjXraeG+76t6815bClefC+o7hoDjfG1+bstCOqj9Dy7kuvPz07EAAAAIT/YWyPOA8NCT+/lWzgPE6YS1yUGe1p+ktTLQPOyZ+uCB2egUGWXU4CNTJcThzeDG550YLREVFte0kjWg2eUxqKmfDP39yh8Ufiyw82Hazctw2tEWNY+UU493qkzSypb10rbwrH2SKFW8XF7f9g6Kw69+QrafWGjVvKGajhcLWhlLLqk3v2uLseNMV+dBx5UVUfwd69iaJ1i4+flJFJa1S1kvR4GxSBMEM9HaA/0PjJTsiS0z/XGIB4iF6y2rjsOarfIU7zNQBGEPbsqFWCukBjO3JWRUGK5FTaaj9GYSwyl/LpJpOUx4sfr41ak1hZeSdH1BRFLZPtrQo/OViZXQtPdI4kiFxC8PLlzWheqCkelTou7eHpZcIfp3ujr3Pb6GnlDb62m/GlREYPn5cW4sa97xhrQtkRXGIk0QzERrD/Q/MFKyKLZYUK1fSFvWbtEDhAdZRxNWMKjBLGAhtBAfhB2L2X4dThYThxqIs43PdJcLVZ7EHxCofMqGWAMt/zhB5Q+KJ9cw7ZOuHRk1LainyFxIfzlIcauKQU07lqeTG3q6zlhRLdHmqjNrrVhGdWm3dyZxhG4/58HlkUdOkykqn0r7PvcInQ6acjWkq/Og4ywcN6ondhFYPfTYUnlw8vFLaihGWfesdkq3DwAAE4ysii0lHjKxXgXCN/ce5y/KjOk2vjiXB+GHZUpSm3PXPKFGZBWmTNaXPDHixMPBA1ZiDQ/RwZR/GcblkfU8ZU74z3Ut1BYQt7+a0jH+vuUPiid6lqnpJilzmkHT1T5lwe1oCBKcwponnL8wjS/i7qXv7zuRvGZJsNuj4BEq7xki1RU4P8+oOJxj8TqTfC5MnJO2Lv3aO9M4Mmg/Wbd1Qv6i1xRVeQSU3UVQ3zEEHBc1t6VM+5XRvg3PUMMaH790yQMAAEiiYPXq1UPf/e539W4wu3Y308N/9kW9ByJBXty5fz0NjZZgzBFkPURZ18Ppyy3147eOCwAAABhlHvmrx2lzfZ3eC+Yzn/lMli1bIGPUC16NhUEsJhNMaAmlDc/QY6fXpn+DvPwV4DMQWgAAAPILiK0xZs0TzqJLx+XpIvgRU0oNx7n8qYSmvEF+6DimsQAAAOQdEFsAAABGwA2ioff457fsLhJdf53dOXavOe7ar7X7FbtfWu4XjhOu/dxy4i/H+RwVh8T3Brs32Z1nd4HTeYvdILvf6HTf4Ty8y+6Sk5ehK+yuccTX2XH+aEhSAWDMGPGarbfffltvAQBAtpHBUu4x8msGT7NtU8JOBu4p7G7y/BoHEoj4+B07Filxx6JFORYw8jvE9T4kgkZ+ZV/EzGU+xuepbTmHw0q4vED6w83O5kSnoJBo0ofZ3UU0+d/xr3yro5yd/PnzZAmRE9x55516KzfJZM0WxBYAYAx5j92v2YlQ+jkP7L9kJxaNn7E7w34y+EfF+3jQERF2CzsZiNkVyEBjibWC23kgms7u/XqAYkcyANyhHR9Xv7fpbXFRTBgYgSnuqv69xI5FjxJNxlniaUisPiKGxAp0kX/FInSOf9kBEMTk5axJl3F//+9450Ps5rD7gBwZdSC2LN4+JzcakLeoAWQ2/87k3yJnMBG/AunkZmDxDjA8SAEQChEGPNDTeXY82CtB1cda4Szrh3/hgf8N9huHFHyQr6W7nOuqQMRXgeOGpD7YyTSXqhs95aV+RXhe5l8RUVGKTACGA9/3J33EGS8mzeDuLA8h7GS8UGMEjx80i50IMz6eBSC2LN4+JzcRAKaym8wXnrYIqKd7sRKY9RL8JG4GGvWULr/Z5HZOW6wPLAYLxGJxG7tb2U3jY/JrHOdTflV+xdnbxomlw/tr3ERY5ijtIwO/OBECMnVk9rUgiP/ajgWCrK9RlikRVf/GfgCACUnB7/EQMJ8dC7TJvE388KEsZf9Ob6dnXImtVatWDf393/+99goGYgsAC2X5k6c6EWAiKkVoyq+ITfnVYlNZNax9+VV+tr+IURGlxvH+kI+fEkFyTP/afknH5FfOs/1NXPYx+RVLi0xLyTQUAABEyLS/5f/+2NlOw3gRW3/0R3+k7vRZofI+on69LXyL97/1IvuzgC38qvbUtPN+oSd8aPjB2ZuWoWG4cQ4XLl+hlM84TzlDkaI8IIdRi4e51W50sTvD7l9Zu3SwO8XuBDvuHNePEV37IbsfsGtnd5jdQdY232f3X9i1svtHdt9jt1/7ybE2J5wKf5TdP7GTOCSu5zneF3T8x9n9iJ2k+S/sOH3Jh1iUbrzCTvJ2ll2Pk9ehn7H7Bbtfs5O1O2+yO89O1l1CaAEQBu8402CNAXyVO8h93fKvbNb+KUgav6zxJX6+J95v8b4vKdL3za8PYcOBcGRNbNWwO2wann95GKHV8gdC9xDV8X0/3in4dwfvs3fW6OeOJB0iRH/OGirNWqKW14gGtWthf3RKAAAYf/iNM2JUkBu/GgP4t9YIpj6iu40/u7v5QTxIGPmOXyK0rPGlXRtPvrWRx1p+pjLpfZX3XQLNEJC+GDpMfjse5fwGGAjChgPhyZrYWs1qq5UfxBXc0KK+ip09qraOte/ihhdlJnDji1XnW9yQRkE3cCeLH9N+4kxHlc724x8TVbCfUevF3BEHuQNmU8Cl4zCryUc5zUq9L1Ryp6zUZYpfANa+uaiU035J5fGUW4k3HYc8+Yif1JFc5GYbAABAtPiNM2f53l29XO/wbx3vy/An203Gn5mbYnDyi7e9LXl8SaIkxZgXkH4bjzEmv8Wr+fxX/MVa2HAgPFkTW8VlLBrOOtvSUe6W13VoSrgzibJuZ9EgVq3N3HhxuHOerXYUtCj15h1OozZUEG3Tqlw6YqtW8F94ghueO04H+xu1Pxa0cr7LZuudMHDZN3IdmCeVlrudi9JbHim3eSJxPVFwenM5rKojfuIhs63rCwAAwOjTw/d2g4gae1/B+2qmJ4PxQsTOV3ksMA/d5qH6C8/xeGn8+beGxwFj1AgkKH3ev9uIw1SEDQdSkjWxpVQ9dxCxxPSwoIqrfU01C4laERLbPJ2DO+dmE9Yode4cHAXV6o4mnUqsPznV2JxRmSUNjXRY/pEySR0pK5g6YCHltupDPVHoOpX01MUidWRvy7FRwLbKhVl/AEA2Qf/LLdAeDk1iCLBE0Vd9HsLlATqUKPIQX6LCabzCD9gyDtjTe4/yzf+ru1TQlAw3fZBdsie2GBFUPazAW1lVeIVE5WZHGHhFWCAcWKw9qrNpl9KkOsqI0o+vUQtJky5Hm74wlYjKE5SpW+d/LC2KYGKC/pdboD00LKzadT2oqUAet+yHcFlkPpf9v+ARYBnB59ZwvDK2qpkhPYaKletR3g9cJM+kTF8/3Kc1GoQNB1KSVbFVWc1KmxX43fybhO6UoQQThxUxsytoPVIOWLk2P+qYeW3BJE8dat/KX/9htas6bIN+AhTRJU8lcXOzCe8ptzqXb2S5JDIBACA18p47eanrXKLJfJOUN5JPXsFuJdGUe9l9UrvfZ/cHlmM/CaPCLmP3CXZ8o5Q4Jv137BawK3fincRDf8FH2P0euznsZrGTl2rKG/zlpcvyrr/RRdbfxtcq871d1t4mCR3tn+5BWwwXO4zFkM9Ry1a4Gl3jovGX+L3xBqQv8bbZ48vd7vya8wPDgWGTVbGlphL5J7T1KgVinhXTqTHPxl8VwR1nGyci03HGfK1M2nw9moXmo7FoXJ7s1Joqkz92spSqkvP3hOW/8aye6pMOz2LMhG3li1JdBJ7y2OWukDVeHBcAQDNpEQ/Ka3ks/UN2/xM7vlhke8pqPVjLIC2DMw/KajCWN1rjiwcpEZEiQkbq76b/keiWB4mmfolo2iPsmtj9HbsWdjzqTuOb67R/Zcc3tmk/Y/drdgPsBi3Hfre+wnGc4rj+K7s2dt9n91+Ibn6O3X7tWtn9o+XYT8KosAfZHWHHw7/EMfV5di+wO+HEO/VfOI2X2Z1m18WO83MrjxDTfumkn5Snkbv+5ns84wz7v1hn3dM7qP0LOuzhe9RDtr3uqrKZb+4kN3S+4aeJt5IHghquHnVuxT1U08F+HLaJB534uGj5e+MNSr+yidsxPr7UUctf8fXkgyxzSYTDOJQN8FJTAEDuINaMKTH+LeUdFkvqTdMz2cnnP+Rt/lEhL4KVF7zKm/DN9wXlkznyKx9mlneR6Y8u33iLf3lQu3GenbyrTN5bJp8jihIuu3wVgabxr/kqws3s9BcO1LZ8PeF2Fk7yK5/VkvDGieA0Tqw/xg8f6AbyeahX2bFwvfELoussWq938rb4RcAEfanpyMUWPkSdh8incsxAIr/GSVvyIDJ0kS80+WitOGswGdJvG1cDUrYRs78MGNbNX6UnmF9547n5zfbnfkD08OAun++Y9GH+ZREl31hTgko+3yGf8ZBpoHzGXFd2vzUiTj7m+xo7g0wqyBcEzBcHjDP7eIgFuYI8bEi/th46ZJyQb52aT3Nd7+HtkOIMYis1EFsgdzHf7JPv+OmP+sb3zbb9DT9x8jTHv0PvsuPt+O/v9DbfXIZYjKo3xcsHlOVmM8EokI/Nys3O/t6kWFZk23xrUjtldRJnb4vlZDo7sUqJkMruqgUAQK4heoAf0Ek+MC9fqRAhdpZ/zYMyc5MsblvsbKcBYssCYgtMPMRaYSwW8is3Ens/zK9M5cgTosFYMkSQyHYqZ0RLUFhz3N42vwAAkB9AbAEAAAAATGDG5EPUAAAAAAAgGYgtAAAAAIAIgdgCAAAAAIgQiC0AABgNepto2bIm6tW7E56g+si0nlCvIA/Imthyd/Zealq2jJoO8UVQUEAFGw9pf4dDG9lvuBeH98KSfUlDOU5zlK44SXOZnVjSBS91YJdT78fzmnCueHKUiVZekIMc2ujuS577yqgywQf4xD3XuNG7944th2ijq915P14HG3lP4xqXwtzzvPEyVn+Pnx92vAsMF5DfJMKGA2HJmtjaQPvo+6ZBe7/PexvoU2W8vfQheuj0I4nG5k7wyOmltFTvjgwe0D/HKfUM0dAQu4MLacvnRukGyOVauO9zKTq71AGXPV4vpdRwXOez5zFauvQx6pFtdscb5G3ZOc5EKy/IKXqbllHBWqKDug+JO0j7MQiMFdb17LjjNN4va9UHuRM+qffV+LNMdUqnDg4SrTWCqaeLFhp/PrBwS/C9MzleRoSW1d+de2bY8S443KGNifz2PHaa1gY8sIQNB8KTNbH1qQ1E+4za4o5GGz7Fw61QTuutY4d2bqGFG9hD0E+HTWLp0io63qa+ylw60RY6cWILlbH/sqYeFTROWXmWRFwYymnrw9yJd/p3wt7v7+M62ErrF55I1EteM9HKC3IJ6V6P9TxBa/S+sOYJve+6V+in8KB7S8b3HMF+ypfw3vsQBww61/Yv43O097gkRd06gsL423XbRTvjFnDbX5ND9VracNx5cNT7PNBR14mHaL3plGvW00MnuthXtp+gJ+KdtYzKUwxMyfFyj9t/Oqm/JxF2vIuHO0T7n0zkt5QH7aWnu33EWthwIBOyJrZK5y2kE12O+Dm0/0laOC/xmFPW8DAr+510iC+QR04/Rls/pQ8IfMPqWm8U+EP05COiwPnmVtZFD4ufuJ4NtE8p81JqeCZhJTnesIYajj9MXWXmomM1/0yDFnmjAF9QB2lt4mYdp1cNDhs+VcrX30N0Yt/3x0dHnWjlBTnDvhMLybqlWMi9gh/g/J7Cfe8tQf5B9xyP9YLdE2u896GegHPdefMOqHmNFpqOCGJnLDoBda4EhakfsbSYh7YTp6n8Gcefq8djqQlqk1yq19PUHc+wiCp7X2NmekIPTCJ2TtAWM66xc7q0zBaEGe9ChiudRwuNOExF2HAgJdlbIC+q/kkx6/dS92lL7SvW0PqHnqS1coE87Gl0vmFtNWGNAu/t5i7M4XVHU08uAY2dMHf20GNLuYMGWF6iYs3Wx+i0uYkb7ItLPe1YU6x5zkQrL8gRlpbzUOaD3Cuse4h6Clf3Icbv3iJkcs9RfdsK70fgue68jSu4XK5pxOP6vh5U57Ylau2TrFG0pWRpQoSotrPv8zlfr2voCRGAcVFURluSHgpEGAaJolQ8xMOarlsWk6fXOhbbsOPdWI+LIJnsiS0lqFjVH+Kb08L1SeZPGaSXcgdyi7AUeC/mIR+TqrGUqQOi5rlj2evDRoPSBnpmwz7a+X29z8iUmplicObix9HU2kQrL8gJFo6GgA9zzwliJOeOd0RoieAwa4gysUTler3y/fC4yZuUy/VQwEKr4BEq7xnherbST9EGsZgdCjnehR0XlWgNeIixCRsOpCSLYkuMGgtpy9ottNBPUalOGfJCUWbLLRQoxs3TjzecPIUGTjdER2nDw0RbzLoBmVI7QQ8ZE7e4g+Nram2ilReMPfysRlvK3H8VdWgj73vuAUr4P5T8sJeWoHuODHQUcC8Kug8ZlH9CJKq8OZsTD8uCFVQPSW2XV/XqrOOLr1VWljwfoaX80/11nzMT9IhRR2ZcW+OpD3u8s+P11ls8nBPvfu2v6m3hPCu/Jl8pwoFhk1WxpaaQMrFeBSLmWTGdGvMsO7MmgEXbwzIlyX7Lmsrc4dTT01g8+XB+WWAo/KYdxt3U2kQrLxhrZM2PWo9l7gfs1pIMzO57RdmWhXQwsTI5A4LuOaVqfZbtr9bPpLoPxc+V64QfQPU00+e6Foa36OQ6PJi71mzJ4vWgRT1SVwsT4V31YMVTtm8D9bjaLqhNxqZe1SJ/NZXp5Fn1g/jrGcpo34YeMn9p7QhA97qroNc/+MW75oke2rCvzDk3Pq556iNwvAsOt+YJ+ZNJxz/VtRI2HAgPPkQNAAAAAJAh+BA1AAAAAECOALEFAAAAABAhEFsAAAAAABECsQUAAAAAECEQWwAAAAAAEQKxBQAAAAAQIRBbAAAAAAARArEFAAAAABAhEFsAAAAAABECsQUAAAAAECEQWwAAAAAAEQKxBQAAAAAQIRBbAAAAAAARArEFAAAAABAhEFsAAAAAABECsQUAAAAAECEQWwAAAAAAEQKxBQAAAAAQIRBbAAAAAAARArEFAAAAABAhEFsAAAAAABECsQUAAAAAECEQWwAAAAAAEQKxBQAAAAAQIRBbAAAAAAARArEFAAAAABAhEFsAAAAAABECsQUAAAAAECEQWwAAAAAAEQKxBQAAAAAQIRBbAAAAAAARArEFAAAAABAhEFsAAAAAABECsQUAAAAAECEQWwAAAAAAEQKxBQAAAAAQIRBbAAAAAAARArEFAAAAABAhEFsAAAAAABECsQUAAAAAECEQWwAAAAAAEQKxBQAAAAAQIRBbAAAAAAARArEFAAAAABAhEFsAAAAAABECsQUAAAAAECEQWwAAAAAAEQKxBQAAAAAQIRBbAAAAAAARArEFAAAAABAhEFsAAAAAABECsQUAAAAAECEQWwAAAAAAEQKxBQAAAAAQIRBbAAAAAAARArEFAAAAABAhEFsAAAAAABECsQUAAAAAECEQWwAAAAAAEQKxBQAAAAAQIRBbAAAAAAARArEFAAAAABAhEFsAAAAAABECsQUAAAAAECEQWwAAAAAAEQKxBQAAAAAQIRBbAAAAAAARArEFAAAAABAhEFsAAAAAABECsQUAAAAAECEQWwAAAAAAEQKxBQAAAAAQIRBbAAAAAAARArEFAAAAABAhEFsAAAAAABECsQUAAAAAECEQWwAAAAAAEQKxBQAAAAAQIRBbAAAAAAARArEFAAAAABAhEFsAAAAAABECsQUAAAAAECEQWwAAAAAAEQKxBQAAAAAQIRBbAAAAAAARArEFAAAAABAhEFsAAAAAABECsQUAAAAAECEQWwAAAAAAEQKxBQAAAAAQIRBbAAAAAAARArEFAAAAABAhEFsAAAAAABECsQUAAAAAECEQWwAAAAAAEQKxBQAAAAAQIRBbAAAAAAARArEFAAAAABAhEFsAAAAAABECsQUAAAAAECEQWwAAAAAAEQKxBQAAAAAQIRBbAAAAAAARUrBq1aqhv//7v9e7weza3ay3AAAAAADA5vo6vRXMH/3RH4UXWwAAAAAAIDNEbGEaEQAAAAAgQiC2AAAAAAAiBGILAAAAACBCILYAAAAAACIEYgsAAAAAIEIgtgAAAAAAIgSvfgAApOTatWt0/vx5unLlCt24cUP7grFi2rRpVFRURFOmTNE+qUH75RaZtt/Q0JBqQ/kVB8aWSZMmqbYrKCjQPunBe7YAACmRm/xrr71GM2fOpBkzZqgbDRg7RCxdvHiR3njjDbrrrrvSDthov9wi0/YTcXX16lW65ZZblMtkgAfZR9pDHlouXbpEN998c+j2wHu2AAApkYFh9uzZNGvWLAzUOYC0gYgmcWKtSgfaL7fItP1ELE+dOlU5CK2xR9pARK+0h4jgTMDVBwAI5N1336XCwkK9B3IFGazlCTsdaL/cJGz7iSVMLCggtxDBlemULsQWACAlkydP1lsgV5A2Cbv+Cu2Xe2TSfrBo5R7DaROILQDA2NK3i1as2EV9ejdOkH+ukOv5A9GC9s8PLp6kvXtP0kW9O1ZAbAEAIqSPdq2YTJOzNSjJADd5Mq3YZcUWZtDDwJgaXa9icXHcCrKrOGeY6O0vwmHHDtoRd3vp5FirCD90PvfamQsjenJEGEUBxBYAIDr62mgffZ7/7aO2bI10Sz9PC/bdn5tiIJ9Z+hidvX6dros7u4H2zd1Eh/WhnGKit//MlfTgtm20TdyD5dT11AHq0YdyipnlNKPrudwUg2MAxBYAIDL62vYRbdhK6xecoH222rItKXO30AntHejvIkZbv7aAtuz0kQL2+XHrTB/tup/jOrGF5rL/ik2bElYOFd6ICrHC6W1XPJYfn7drk+VnOLzJSm8cUDKXFuhNhV+9qvrYRJvEcsn+mw5rK6badk4LrEdX/R2mTa5jJnxQfaL94xRNpxl6U+GyfGmrl7YWnTyQsIgd0Ors4sm9cT93+AN0YK8Je5FOxred83zTSWImLV8xg4696CMFfc/ndJ47RgMDx+gp9t974EDCyqXCG1Ep+dHbrngsv3h5PUK054CV3ugCsQUAiIg+UlqruoRWr/88ndjX5gxwPExtYiG1oM1YUR6jpSn9fVi9h9qoOjGoK+T8TvqabZ25XwbVEtr8NMelLTcv7FlPC050qpuwiMEFnyfar+LpoU4eyMs8+Tj72BmqNgnxgN25Xvz30GrHxxmEq4narr9Am0u0X75zeD99e6nUhdoJqFfmxBmKPc1+bZ+nb1ffT2S2vy7HA+qxZDN97fPf1nXOSFqfX8/1mSIdL2h/h55XqWvmTJru7NCBpwZohW31ek6LFRYwA/O1fw37v+D4Fy15wPFT/pYwGjhPM+/TYVufIzLb6rwU6XgpW0c11JoQaYqg84toyX0raaa23D2wbj7NGBigC3zGxbNdNKOc6FUVzwUaYCE3XcVzjGbUOPE8uPI8tZqE4uVdp/swIyKslahm2wO0pEj7jSIQWwCAaFBTiBuItRYPjuvp8yf0VGLfWTrDA9/W+GilCfIPYPXWx+iMGtQ1cj59m6qNRYIHzBN6UHWzmtZ//gyd5RN7OhfQ+q0xOiOjrZy/YC6VePJRUr2Bln57Pw/BjDd/Yi1RA7w1+OYr2vKj6u7rMTr7wmaWKUyqel2q27csxmLG2pZjKepRxPe3tdo6vP8MPSaBQrefw4Rtf235UdacF2bSgw8sYZnCXLxA56mLWs0xFiIDWqzI1ONyozqmz2SporEtQ61dROcvOKJpZjnNlUglrL0tx1Kl40PZ8pV0Xos7Rejzy2h++Xm6wCdeGJhB85fPpPOituT8GdOpSH6tchXNLaeZXa867W2XV5A6UwLPEl+jDMQWACASxGpgpm4mT67mYdAzlThSSjbT0xv20c42vS/wYBhfd6Sc/yDIeoA6ew7T/jMxKiuppg1neDDt6aQF6zMcMjm9Ntvykc+YuhOLolekhKzX0KzeSo9JnfO//We0SBMySWeitr9Zs/XgSprpFSnmWNylEBcitJ7qovIHdViJTx9KSybpFC2h+8q76MWzel8IeT7rOxq40EOvnp9J04vmUvl5FlMXBmjG/AwlE6dXY1u+xgCILQBABMgU4gn6vJkSFNempxJlPZCxcklIEWWyEeSfgpLNXyPassU6fwv5LeVRWAJCrBX09a/TmQ3VVML/ZHf/fqKY3MM98ah8qGkuf8o2v6CmtOJ/ISfTSvaannT7uQaLmBdYwFSbPKar1yBS1qPU+Rnav2m/bgPxyjydnGz/0YJFzAM1RK1mXZKs3xo4Rn5LpAIxVitGpuoGnM3UDCOdoiUriI4dc+JPd74lIMVaRS+8QOfL51IR/5PdV1/lbMu8qScelf/y+YGib/qSB9SUZvwvJJVVz1rTlW5/hEBsAQCyj5pC9Ey5xKcSV9OetgW0Za4z3XN/5wK9NivIPxVyzucT22cfozPVehpJnFkIrdcJyRSTGhR5QJURWtaTqcO8++0zMW1hccczd8sCatuT2uKxek8bLdgyd/QH3KhYvcdZq6QWfaeo15SkrkcRPGe+TfS1+EKn4aTD50zk9i9b56xVUou+y2jdgyvpfKuenhOX6jUKLNZWzEhMST43MCOkZSvDdBR8Tg0rJbMddL7kqdyZYlSiiAWVKLRyrQhlt+v8TC0Q3fE8dWwG1axLbfEqW1dDM4495X4lxSiBD1EDAAL52c9+RgsXLtR7IJc4ffo0feQjH9F7/qD9cpcw7ffee+/hc0s5yuDgoPpsTxjwIWoAAAAAgIiB2AIABDJp0iS13grkFmHbBO2Xm4RtE/kGX6YfPAbRM5w2gdgCAARy88030/nz5/UeyBXeeustmjZtmt4LBu2Xm4RtPxFbMpUIcosrV65k/DFqiC0AQCAzZsxQg7U4WEjGHmmDN954Q7miIv1nZClA++UWmbbflClTlNgSBwvX2CNtcPnyZeVuuukm7RsOLJAHAKTk2rVr9POf/5wuXryIG/4YI38dd+edd6qF1TIQhwHtlzsMp/2kzaQNb9y4oX3AWGGsWSK0MrFsyQJ5iC0AAAAAgIjAXyMCAAAAAEQMxBYAAAAAQIRAbAEAAAAARAjEFgAAAABAhEBsAQAAAABECMQWAAAAAECEQGwBAAAAAEQIxBYAAAAAQIRMbLHV3kCFhYXKNbRrPwAAAACALJJVsVVZ+S3q19vEW9+qrKRvtX+LKkXQeNRMewP7ucJnQD/H6Xeu+GvxVFjYQKn1Uzs11L5Cj3YM0uDgIDVVau+osPMclH8AAAAAjDuyKrZqqJUOGwXRf5j3amh1CW/fU0d1r+ygb8WPfYt2vHIP3aN3s0bxF6i941G6555HqWOwiVLqp/4eeoXuprJivT+aSD7bv0BjkTQAAAAARpesiq3VNUStRm31nWX1tVoLirlUbR1r3/VVuruGPQRt5fmWWLq8U3ouS1WlFmv99K2NX6Uf//irVMH+lXEF50Ng3O3UUMFxUDPVir9YmVxpaauY63z2U/sN1FBp4hLrndmWE+SUSh2HuIA8NzQkLFtp03UcpjkBAACA/CT0h6jPnz+vt5KZMWOGsyFroNqqabCpUk0TtlUPUlMJC4eNRE+0l9Guwjaq7phLO2T/CaKN5peFz90teipP4tgxlzpMeGOhEgGi4vkCFdvbcszGG843bm8cLL4Ka4l0OBFMFWe30eDmHvf5Kr5Wqulopy/0cVxqGlJvm3hVJjRWffjnX8oYIl07307MKdsDAAAAANET1z8pkA9RZyS20kcqokUE0mbqqdxFZe0slCyR0ccCrLaZqE5EhBFhRnQZIWHCaxH2YxWvoY51iTvOtGLLL27vMb9wFWdpmxGGmZyvzrXyLVOaQeH9yp4uXdkHAAAAwJgSThc5YivLf41YSdV1r1BP+2Fqvbs6ac1U5eZH6R4WTNXeA0GotVfOAnbHpVmHNdYosSSWL51fWT+mDwEAAABgYpL1Vz9UVt9NX639Kt3tp6hkYXhYwVRcRnf/+Ku0K2it0o/PUp/eHDGetPoPt9KP65LFYijuqaHV2vyk4nE2Hbx5zma6AAAAAMhJsi62WG1RXSbWq0AqqanjUXqlNrFIPP6qCBZt2+qcxe2uBfLKsmQWoqd79YONO62Kr95NLWqxVIZIvu52FsFLPBvP3p2wbNl53nVWe2YpXQAAAADkLFleswUAAAAAMP4ZwzVbAAAAAADABmILAAAAACBCILYAAAAAACIEYgsAAAAAIEIgtgAAAAAAIgRiCwAAAAAgQiC2AAAAAAAiBGILAAAAACBCRuWlpn19fXTs2DHq7e2lS5cu0a233kqlpaW0cuVKKikp0aEAAAAAAPKDnHqpaWtrK33nO9+hsrIy+ou/+At6/PHHadu2bfSxj31M+e/fv1+HBAAAAAAYf0QqtkRoXblyRYmre++9V1m0hKKiIlq8eLHyv3z5cvYFV/9uqqra7XxHcSSkjKefdlcVUmFD+C8wjnuyVe9+RBm3H6Od3miQy2Xyy1t7AxUWVtHucdUIAICJSGRiS6YOX3nlFaqpqYmLLC/i/+lPf5rOnDmjphhtqvTHnI3z1TRjOHj0795EjbEWGsylD0cH1UeSvwhFHsTa2V/q11O57Q3sN5J6zVa7jCSe4ZybrXwPh7FMO1NGK6+VTTTYEqPGTXlSLwAAEEBkYuv555+nNWvWBAotgxwXq5es6XKxeDt1DA7SoLiO7dS50+eGW1xPR4/WU7HeHT3aaVcj0fbNOSS0UlG8imqolY6YCuw/wns1tEqWyy2uo7rOnQnrAQ+kOzsX02K9OyzGrF3AuKNyM22nRtoFAzIAII+J1LIli+DD8IlPfEKFD6Svm07FSqlYP1HvFstLYQO120/Ysm0sYRWNdEqdyNj+4vzC21MVQfHYtLdR82IWK3E10U4N8bi0Fc4VP+dVgolfPP+esH7+QlA+k9Lsp92bOL+nGqmC96tccy/FtKqGqNWoLa5PqlmlxdA8qraOtbOKjNWwh6Z/d1U8DV9rl1996fL0u8pl1YEJn0l5dnGeFc70bcIYJ+d5p5p86sKVrs6LC//0jmTUJha+YZwyxttGhZFj6fKrzxc/uz5d+44zeXS1W1AehRRx+ObBW08NDU5bx8ObupV28mtzy8/bNwyu6UPpu4upszeoAAAAkPtEJrbkrw5lbVYYxLol4V3om7m6Qdd2JqxI7N9dLRavJkrYlXgQ44E+1pKwhDmWmVT+3bQ1bjmroVY1VREU3k1/byctjosVGVRqicw57Joq3fF0bO+kWjOCxfPPrqWOmo3Fztc/KJ9+aRZT/R7Or7YIHq1325WKS2N0qtsRtO1tzRQrTRwvqd9KscZdavDe2bmdNq/SB3h/U2OMk3HSaIl1k1sSh6gvV3uNoDyb5+kI2X8r10+brk8RvnVbyV1cb130BbdHHJ/0MmoTm6AwldTEdURS11LmTa1U03GU8+6X34A0vP0/oD8V1x91/JR/jJP0ltcio3J68tpUTbFTTr/oP9JKsToip2n6qJuFfImKJ921YF3LIsJUV5B6cbzsvgsAAPlIZGLLV0AFcPHixeTpRn0zd9/oHf+k2bv+XurM1J+aqdaIOR4MTsmAERQ+FWpKznOOJ57iVTW0uLmNhx3Gjr9kXkKc+PkH5tMnzXRUVlOdykM/9XbWUbXr3EqqruN0ZFDcak3/FZdSTKXvWB4qm2yBy4SpL/t4tsoTL4sjHOvchUkmVXukIpM2UYE0qcIU19MeERyFFdRas8cjEjWpzvfWt18eBduaVNtM1NnrXD9+DLecCuk7nSSGp77uGFWzSO0UtSXnK2s0/wbVvbcsLL4qlMDz9DPJU6r8AwBAjhOZ2JL3Z/3oRz/Se6np6elJ/b4tGfR9b/RpkOlHvZkE3+jjYk45zw0+V8haPvWg2M7CJladFEfl5u08yCaLsCaVZjW1qUHXM90zHLJSHkcctrW3U1uzN8+jQJgypAgjlpq0jKSeRGhViNVMnxtgoU1LyDywFqLuPm6LznlUIusDO1lM8bUXy7RhOL0WP6ujWUagdwEAIN+ITGzJC0tlkXw665YcP3z4sFokH4haIyVTEgEoMZZYAC7TGUpkiQXE8o+jwvssug2Kx4Oa1mg94jxpq8Xnnrg88at46pIFTloC8+mTpiGFKK2sjlFjbaP/ICiL2r2DKQ/aDWrhjIiuDtq+2LFgxAlZX3GyWB4Rh521tdS5fXNwvZpzM2mPdKI+qAw2KcO0U4OaJmuhWOMm91qqgPwOC2tNYdp28SNdHqx6EmsV7dxJnWpq3Vkf2NZGNE8u2EzqnimpP0otVOtac6im7VVkAACQn0QmtmRx/IIFC+h73/teoOASfzl+9913J1u2+AadWLPFg1PKv25jMSDrUiqc8Ju6Y/pJ3u2vpkKMPz/td9Zqf3FqkW9QPB5cIs5Zw2LH1dDujr9C1j0N6xURQfn0S5ODs2DaKtOBvO9eIK+RfCdZr1LAAyVXhk7Db9orZH3FGUF54gvkNSLQFi+mmsRfKbhx1UVJuPZIlV6coDLYBIVhoaU6s4haU3faWpgiv/5ppEDiiiWun/Tt4keKcrryyj7ST/jCMm0hu82d87TYc8cT5lqobBIhWqH7cD8daT3lWmMIAAD5RuSf65EXlsp7tFavXq3eIi+L5kVkyRSjWL5EaMm7uEYF+SuntuqsvBtL/tqrontrbr1nayIhbblzHnXgFRPjG7QzACBHyeRzPaP2bUQRVvLiUnlj/NSpU5XlS6YOo/42orygU9YHO9RRSyZrX1Iif0FXkXsvNp0gSLu2VctfLWoPMP4QoSV/iaz+YlP7AQBAjpBzYgsAAAAAYDyRidiKbM0WAAAAAACIcIE8AAAAAACA2AIAAAAAiBSILQAAAACACIHYAgAAAACIEIgtAAAAAIAIgdgCAAAAAIgQiC0AAAAAgAjBS01zgBs3btD169dpaGhI+wAAAMglCgoKaPLkyTRpUmobhdzHr127pn5xT899pD2nTJmi2jdT8Ab5POPq1at02223qQsZAABA7iEPxO+88w7ddNNN2icZEVdyP7/llluUG84ADkYPaa8rV66o7zXffPPNGbcX3iCfZ0iDQ2gBAEDuIvfodJYqsWjJt3/FQWjlPtJGIoqlvUQkRwnEFgAAAJAFZEmIWEhAfiGCK+opX4gtAAAAIEvAopV/jEabjW+x1b+bqqp2U7/eHTbZigcAAAAAE45JUZvORkpVYSEVWq6hXR+wGSsxlA8i7M0f0De+8QN6U++yB/3gG1+iLz17Ru/7cOZZ+tKXvkE/SJwUDUl5i5DxmhYAIA+4SCf37qAde0/yVggunqS9YcMOBzv+TNKSsDu4HNrtPZnmLG/cw003zxGdlfuWrcXbqWNwkAbFdWynzp0+4qa4no4eradivZvvfONLLIaUe5ZSSKJhDepv/uAZOjj7AfqbqjesdMRZ4mrBZ+lvHphNB5/xiVvSdJ33JUql2zIm6vhtvPWn0rZF5hl6VtpgGPUcLVow++VJCWWr/nwrT8qVKgwf98ZtxfuNeAV54hkNgQ5APnLxLHVROf/rorO5pi6KltADDyyhIr0bTA8deIpL8eA22rZNXA3NGLigjw2D0OmOD/JrGrGvm07FSqlYW5R2N4i1q4HabQuTbBtLWEUjnVInMra/OL/whVW02yi5oHji9NPuTex/qpEqOEyVnOiKi/OlQzr+Vtxp+PJX1tKcOWvpK3/zWVqg/bLDGTp6kGhtlY5VpfE39DfivrKIXvprS9wtqKK1dJCO+o3VrvPW0ut7syyIvPEfjkjozPoAzT53Lh73m6df4rSJzsU93qDX58yhWbP+gL785T+gWdp7zHnzNL1Ei/jfS3Taqpg3f/AN+tJeogdM3bF7gF5OtKnhzMsSSIf5Cq19/XBcJKk4OBKuiQQitKx4v/wHdk0sstL7MrkOAZDDyGL23/zmN3ovGTkmYbLBxbNdROXLaf6MAeoyaivQ6nORTj53jAYGjtFTxnokx+IWpQMse0z4A3RALGbsf6BHW8/UtoqRg+zV54jbS44hyhP/gQNWPlhQxcMn4kkwg6bH1VEZrVtX5my68heQzske/3R1uU8e8EnXFS87nU9XueJ5z21yX2xpMaMETG0nbd9cGffvrhaLVxNpH6adGlgYxVoSlrDFaf27aWvcclZDrZtEhAWFtymm+j3sry1vR+v7XOd0bO+kWt85zwzRVpUfPJuwIDjC5k36wTMH6dy5g/TX7KesDS6rkI+VgQfZl+YsooV+A6IID73pMIsWLppDr7/hjcSDCBEjiPwsRXrfGcRT5C2IN8/RudkfUELHN47A+tHHTPi/5rrS3gkW0McXvU6miG+em02rV89OlJnTpkULaZYphystLUztNPzKFXDcVRa/OtJ+fihRuKiKPj77HL0UV1tvkniv/YpboC/4rI9gX/BZ+mzc803uQ7PpA7pPzPqDLyuBy5ozzpmXX0+KF4B8R6Z2/vVf/5Wv6+QrTfzkWHaW2VwkpbXmFlHZ/HIa6DqbRhwU0ZL7VtLMmSvpwW3b6IElF+jAU8doRo1jUXpw5XlqNWpk4DzNvI/9a8qpq/U5IrP9giNAipY8oK1Q4j+Djr0o53niXz5TRaXE0d5WIp2OOKOlHMpofnkXtYrAcakwsXgN0AqTzoOc/nOSvrccZQHpMizABubr8+P5l3gT5d72IJ8rYVmAPXdsBmfT8a9hATsC+9qokWfTiEYMOf5Gd8Xp76XOTP2pmWqNmBML1qlu6gsKnwrPOcWramhxc5tj3ZJpzsGjVD/ceU4WVOc+rq0HDyyil5SlZxb9weeMBUysDW/Ss399jlYbK4NYqjzTgG++8TrNEfGg910oITbHdWzWB2bzQBw05Ft4LER+qEHc5E2mKH1NZhotIJXo2MsDvbbEBcbhWz9nuD4O0mxjwfEICMMs9nQEy5v0BoeYteDjNPul06osZ15+iWYbFWKIpyXiQ9JIVecBx1mAPXNwdtwi9ACLJl8/HYsbR1QtYsW84OOL6JzOq7J2WaIpPXoq8ksv08dTWlDP0MsvnaODf63bg53bivkS7dX+3witoAEYe+S9WUuWLKHu7m6X4JJt8ZNjWXn/oZ5CZK3FemU+lQ9kOJV48QKdZ4GyXAufornlNLPrVce6NVPHO30mixhrW44JtmWolRXf+QvBQk/lM5GOH2XrtPCZ/6oTp4guyR+fqUSYOBZIAwMZCiCrfPH8e8odp2g6zVDpORa+snXrWAbmPvk1jVhcSjERQ3o3NDL9qDeTYIEUF3PK2ZayHIEFlZn5E3XgJxrUlJc18ClLThoB5BI1h+fQV7xTZZLW62+kjiMstoVnL6uFVPF6pzeNgAmKw69+1BSg5R/ArIWLuB44FjU1Jxa0WXy+1BuLr9cX0ce959txpqvzoOPKiij+jnVMWZ/8/CQKy9qlxIyeQlTWSRaGi85ZU4kesZwaFutfljr+OL2c1tJoTRWqaWMz3byAPmv8/+YBmn3wmfAWSwByAHkbvC24bKGV6k3xmSBTiGbqbMeOVpYJ1lRilIjQstdYGctQNihbx3HWUHlc9DnWKpWOclkQQBcGuKb8KKN1Ko359KqqUz2tmuPkl9hqb6PmxfOoRO8mocRYKx3Ra6P6j7Q6Iquymuos/zgqfCPt8s72BcXjhxF/nrjUOXXVjnDLcM3WsLFFinJppn5MeLH6+AkzawovJWZtk95NQkTSX7NE+IrOV4CVyRdjNRtJHKmQ+F96mc5wWWcrZSXTp0Rv8E33HKeQtuzp6tz3uBEpInRESIl48fPj3FjWPFkrJVOIZurYWVulpxJVPbnXcIVDplK5ncOeN2shLZqTmHpNwCI1Kw0CwOhiC65sCy1WPHS2a4DKrak5mSaLTyVaFiAlyvS2whwTSw6LNTUDyKhw5fPDiRlj7WIC4zcUzaVySqSThIg3e/pQWZ5m0nRP/pLwphPW6hVkBeR8HFCLwkR0PUgrZ56nC7KrrHiW8Eq3P8rk2ZotopaUf3VYSU0tMWqscMJv6o7ptVZu/8SCd/aXv3Cs1f7i1ML5oHg8FNfT1jpnGrJqd4krrorGGLU0jYKNzIgkNdgGLGjXqGlBM+1kI+uuHqC4VcWgph3npJMberputbaKWaJNCQO9TdZaMZd/OuzpzUzi8IiP4PDOuq3Dh7msOm4+lV565jC9HjTlakhX50HHWTg+q0xAIrC+QmtFvJzx8UtqKJlCPEeL4ovb2T1gphIXUNVaooP2HzkwZ5517wtv/uBZywIl04Rz4mVPRurnJTpsTrCnK888a62Py3QaE4DcQcTV0qVLlcue0GL8puaMiKAldJ+sv9LTb88NzEhYnoqW0Aq9Pmrvyem07sGVdL7VCfeUrFdyL6byR+KYYSxqKeJ/0UgwZ42VSUeca2mWiLHzrfFjO8Rqdp/8NSGLHit/yplF665ysI9vukFwvLLO7CmT3jFHLLK4Y0+d1lPUVX4fLYkv2s9dCqqqqob27dund4MZVx+ibm+gwrZqGhwNMRQC+RCmCDSDTJU5wmARPfCVOXT4GaLPmSk+sfBY+2ee/RLJjNqctV+hLy88Td+QqSoJJ4hV5XNEz8TDy5/qH6Y5X/ky/QG54xFkyopPp7VyfJas6flrOrf6b6zF1IyyMFlp0Bwd3tlz4nCOzlm0iOj1OSqNN3U+Xf6uvGmS4pcpLMdaZMoqBMZh14/6KzrnBDsv8bQ0Ks8vLUpMo+o8yHovVXYTZ5j8euvc7/iXP0BHrb/4U20na+6S/Dw5tcumvUQsxduUPe36Vyx6gP7G1YCMVS/CIlNOxnu+c8zpC4631d6estnxADAekaUmqT7H895777nu5SCL9BygHa/Op21hhOYwkLaVz/ZkQlhdtGHDhokjttobCqm2We9QHbXk0Nosr9iKEjWYnludPAB7kQHZbx0XAABMUCC2RpeeAztI1vU7lFNNNtaCBQCxNQEYTbHFcsuxUsiLTYMEl7J8yJ/7JyxWAAAw0UkntuRefscdd+D7iHmGvOLj7bffjlRs5dcCeZAF9F+hpbJsyRvk8YJKAADICBFZYt0C+YWI5KgFMsQWAAAAkAWmTJmixJa4XP/uMHAsWpcvX1Yuq38Y4QOmEXOAq1ev0m233ZadF+gBAADIOtevX6d33nkn7aAsA/i1a9ey9qkfEB3GmiVtOhzLFtZs5RlyUcqFjCchAADITWQwlgfiSZMwIQQcILYAAAAAACIkE7EFiQ4AAAAAECEQWwAAAAAAEQKxBQAAAAAQIRBbAAAAAAARArEFAAAAABAhEFsAAAAAABGCVz8AAAAAWcK81FR+8e7E3EfemyZv/sdLTQEAAIA8QMSVfBFEPmgsLurv7YGRIe0l30W8dOmS+sB4pu2F92wBAAAAo4xYtKZOnaochFbuI20koljaS0RylIyK2Orr66O9e/fSn//5n9Of/umfql/ZF38AAABgPCCfXhMLCcgvRHBFPeUbudhqbW2l73znO1RWVkZ/8Rd/QY8//jht27aNPvaxjyn//fv365AAAABAfgOLVv4xGm0WqdgSoSXzoSKu7r33Xrr11luVf1FRES1evFj5X758eYwEVz/triqkwoZ2vW/Rv5uqqnZziIjxSyeKtCXOwgbyKenoEVSu0arr4TDaeWtvoMLCKtqdk5UBAABguEQmtmSK8JVXXqGampq4yPIi/p/+9KfpzJkz1Nvbq30dqgoLqcoedZIGPi2W4n56n8/zOlc8mv7dm6gx1kKDTZXaZ5zhra/F86hEbwYi58TrjcWZa1/76aDjCruukvpZGpLCSz9kwdSu684j5tsb2C8o/somGmyJUeOmDNIHAIw/Lp6kvTt20N6TF7UHI357T1LC5yKd3LuDdsT99D6f53WueAQdf+BxL9607f2kfAE/IhNbzz//PK1ZsyZQaBnkuFi9jh07pn00i+so1rop+Cm//wi1Uh3/a6UjKkwx1R8dpMFBdh3bafHi7dQh2+yO1herUxK0065Gou2bx6nQ8lJcSjG9mZLiejoar7smUrVj1eNgC1FtJkIkX5ByH63nHjQMildRTbwPMqpf1tAqUbbch+s6dyb6MAuznZ2LabHe9aVyM22nRto1LlUtACA0M8tpRtdzFKiDLp6lLirnf110VoUpoiUPbFMzRtseXEkzZ66kB2Wb3QNLitQpDj104Ck+80EddlsNzRi4oI8Ng6Il9MADSzh1kIpILVulpaV6LzWf+MQnfBbLz6PNW/kpP2DU6T/SSlSzmapjp6g1PtKFpL2NmhfzgKhH1/7dVQnrjSUmjogVQvsbA4UrrJny0daN3Sq8tv6Inzec17+ikU5pby9+abvjTFiZkvPfT7s3cdynGqmC/ap2l1CTFhNBZQ1FZTXVneomb0v51olzwL+sfv7iF7IO/cqQslw6buWn4jR1J1Yo3o4f99Tbrm4Vyrct4hTTqhpK9ME+PqdmlRZu86jaOtbOCj9Wwx4a/zxLfIups9dVAgDAhGMmLV8xg4692KP33Vw820VUvpzmzxigLkdtZcAMmh5XR2W0bl2Zs+myeO3VQu8inXzuGA0MHKOnlBWsx71/4IBj2dIWrpMHEhazAybrrnjZaUvYxZN7k/zGK5GJLXlvhazNCoNYtyR8EpVN1EK1PgNcPymtxWqpsrqOTrUe0QNVOPp7O2mxGRB5oN3UGKMWbb1piWkxwQNud7Wx6NRR805nMCyuP+r4KX9LDMbDi0WonRoqummrCddRQ61qakj8ecBtMf7b/a0cvmm7z+3Y3km1UjG++S+m+j0J617cshdU1pD0797JIjV5OtK/ToLKmqIOwtShXxnSlUsse1okikiP1RG1qWbro24WRInyeOpt87zAfmBTXBqjU91Oiu1tzRQr1fXNlNRvpVjjLiXodnZup82r9IEUebbjAwBMYMrWKct5XLTEuUhKa80torL55TTQdTYDoVJG88u7qFUEjitisXgN0AptDdv2YDl1PScCqIiW3JewlD2wpMy9v3ymPp9hATYwX59fw+e/IOdLvMdoRo2Jl8+VsCzAnjs2g2rEj10Ni8YR2NdynsjEVqCA8uHixYuB042Vm7dTp3eAM1M1MqYpa4s1jZMpaoqtmWq1taOyKTF9Fp9lLJmXEAQ8SMatLbXNRJ29Tt7s8P291Kni1OHEeiODvfjb4YLwS9tzbvGqGlrc3EbtQfn3I5OwBhYbYuWRclS01lCH33SbX50ElTVVHdj+QXXoV4a05aqk6rpOEmNRX3eMqllEdYrakjRipcnlsfFrCy/SB6UtuCf0dtZRtStxSZvzJgJzq1V3qfIs6Zh+BQCY0JQtX0nnlWix0FOIrLU4wHwqHzBTieEoW6eFz/xXHauSiK6LF+g8x6pEmDgWSAMDGQogFmDLtZGMps/Uoorjtf0NRdNphkrvAMsxydM6loHjl8jEVklJCf3oRz/Se6np6elR4X0prqc9Na2064jeZ8Q6YaZ6CgtrecgaxlRinEpqUtaFampT8TmDny8iKipY5nVoS0eQZUrgQTq+1km5EMJmWGSQ/4zCauxyBAmtsHWSKb516FeG9OVi/ULdfe3U1jmPSmSdVSeLo75uirmV0TDRYq6dHwJi1bznRh4YFlOyCAvMM+frVDoRCACYGBQtofvKu+jFs3qfkSlEM423Y0crS5bhTCUyZetYdNVQederSvCIWDLrvByXBQF0YYBz50cZrVNpzKdXVTkc0TVeiUxsrVy5Ui2ST2fdkuOHDx9Wi+SDKK7fStRo1vzIFOIpqjPTUOJaMptKVNM0JjyLhQa1GEgGvw7avpgHzVQzOPZaLxF9zqYbsVqwGExabqb8E1a4wPP98MSpzq3jgd0v/6YivOurUoUdCX51ElTWsHUQVId+ZWhPXy6xBNLOndSppo+ddVZtbUTz/DS+z7q0dFRWx6ixttFfvMkCfK/YTtEWaprbN2MAgIlI0ZIVRMeOadEiU4gDVG6m5cTVZDCVKOun7OlDZXmaSdPF0sQCLmCJGLG6c1u5wlq9gixvnI8DalGYiK4HaeXM83RBdtX6Lkt4pdvPEyITW7I4fsGCBfS9730vUHCJvxy/++67gy1bCh6QWFAp1BSiZxoq06lEOzwP6tRYQWqqqrCCWmv2UH1QVnjQ3BpLTKtt6o4FWHE4vx3bqbPWCaecWgAt5eBBuSLd+X6446yQ9T7y2gq//IvwkbzK9BX7x199ERTWwAKgSk3XSRlDWL2EwDoJKmvYOgioQ78yVKYplyDnsaqTdX5mt7lzXlwkxrHrTS+QD4X0qSTrVQoC28J5mLDXfQEAJjosSFhQKdQUomdaLpOpxKK5VH6+1ZkqVNOFXVR+n/w1Iafx4Eo636r9xZlF60VLaIVe56VeE2Hvv+hvt0ogeZ9Bx54y6WnRyOKOPXVaT1FX+X3k+qPJcUbkH6KWF5bKe7RWr16t3iIvi+ZFZMkUo1i+RGjJu7hGG/lLsIrureP3PVsgP5EXm+6c5782DgCQ07z33nvqAQqkoOcA7Xh1Pm1bl1srtGSWTD7bkwmZfIg6crElyGsdRFjJi0vljfHy0UexfMnUYWqLVpTIn/1XjO8Xm4L8QoRWbSdt7ziabJkDAOQ8EFv+9BzYQa1deofKqSYba8GyzLgQWwAAAMB4Rz5Pd8cdd+D7iHmGfIT67bffjlRsRbZmCwAAAJhIiMgS6xbIL0QkRy2QIbYAAACALDBlyhQltsSJtQTkNtJGsrRJ3E033aR9owHTiAAAAECWkAH82rVrdOPGDe0DchVjzRKhNRzLFtZsAQAAAABECNZsAQAAAADkCBBbAAAAAAARArEFAAAAABAhEFsAAAAAABECsQUAyDFeY3eS3XeIbnyd6OpniS7fS/TuTLejVgkMAAA5D8QWAGAMeZvdi+y+SXTlf2YRVcguxm41u3oWWd9gsfV9Fl3/ymGuehzeYwQAyA8gtgAAo8QFdmKx2kt0rYGF1D0sqD7Mrprdn7PfQRUKAADGG5m/Z0uePG0mLSCaUsFuPu+I+xg793snXuj9De1+/hy90PNbevvSNbrz1im0oux2qr93Dq0ovUOHAgDkH9fZXWN3hd0gu4vavcXuPNHQAB/+Kbv/ytvin0Wm/R3/92lnGwAARploX2rqFVt+TCojuqmSaPIc+rPvzaI9z89iz1udYx7qPzmHttfw0y0AYATI26plak1Ez7vsfsvuN5aT6Tp2N1gEDbG7wcLnBguhIQn7O/4VJ2KJf/MFiC0AwBgy9mJL82eHiYWW3kniTnZi1XofC65ptH0ti7ECEWTyynx+Uh6SJ2bz1MwDyZD8ymCi/dRx2RfszyIEbdvrO4LCSJyaIZ8wrxNVbbpOe/YTFSsPK3w8L8nsXk/UGOPn/ke1BxgbVPtxn9xDtEl+4+0IcgLTPna7vEhUWEu0vYMfzGZrPwPEFgBgDMlEbEW2ZuuF1zxCy+gm0STye12etH/J7lXa/cMOeuGXfFe99k/s2tn9N6pad4z6r7Pf9R+x+zHRay9R1R+eof4bXax9elgM9bPj85X7teXOWe4NonNvUNV9b1D/0Ju8b5xMbxjHT/hxx3kyTlkGjJOnfeMuW04KY5w//U/noNCSQY0FINegGx9/EYq7uRmq7uJB76vaU9PO+4V+8XgJSs8mTJixYKzyNZJ0RyPPo1Uvy/naaeFriEVYclrRfqUfAACyRWRia7cttG4QfWQ60Q//nHXMN4he+v/zfhH7W4ah3T/UG+OMXY38VL5Z7+Q6s4lq+OcID6QK/pU/rl9Vwv8tJqrr5Hayju3kffZOD8d7NF+tSGOV93yus2zDgms7/+ySP1oEAIA8JDrLVo/eEFhstW4hulfPQH78ZqK9/KRqz+C90Ks3wiBP1WJp0a5de4sVyfgZi8tuTufUKaIK9qvi40n4xSV+fP5usdxo/wbPjV4sPrZfA4eJCxEDH29mNbLKmv6QcK44M0k/Vb488dh58aaZqk5WsdpqPaJ3+tjxvhnwq61j7buIYqLMNH51H0fnuz9F/pPy5Fcez/ntKeJz5YddUtto0rajTiNV3m3SpqvjaWDniscTvymbSlf2nbMVkkfZD0orVF3a6LR8yxZwrisNPk/lVQ7o8Ca/Ur/xPm3F49fP7TKq6UP2M+lJv+zM5B4BAAA5RGRi6+1LekNgUSUCy+aTIrysZVSu8IK+kZubc2GF8lI08HashWjwNaIOfuSt5Zu13Lg3NRK1sJ/4t8QcrVC/h2gxC54O9jt6vzrdhW9cAifWXe34yzRG8049mGjqt7Jfm97hgaG5LnlNST8PDostsSIDD+m0xDXxE3vG6Qf4SzxbdbyDHSyKeDAUf780U9VJcSkn0e1st3P5YrxvKOGwMa5jEQJi1dq8Sh8IqHtfAvLvzVNQeezzK1PEV8xxKD/t38ji0I8w7RgnqE0sQqXL8czj8sbjqdVCw1s2gfOylfPUZsSPzqMcD0ordF3aBJQt6FxXGo9yv+Dzpc37WYzHrPxKVxLDaJh+Hi+ziDCuE+lPpi3sfgkAAPlGZGLrTvuPD1ls/dDzV98vv8f/WZYtV3hB38jVTV4c3+jZS92IO3ljM4sGoZgH/MXNPFjxTZnHeKrVT8iVPADEb94WtjVAnsh945Idy19GC5W2DR+r02FFlNTxgJESzrdMycXjFILKIjtB6fv5Szz8I2WPC1MZ/PzSTAeHNeXq5UirPedW80BaKwMni5T4FFfIulcElcsmqDxyzD5fCIqP44hbUnjglgiTBIZglTdtO4bMe9p0+cS4tVPS559eKZwdv0Ul58kIQsljfFo6TFqp6tLGr2xhz2WkX/Ry+D4WRNWcv07Jr5zPHaNYfq34A/u5wPFXcDoi8Fx9SPIU1IYAAJDjRCa2VpTpDYFT+eP/iwWWrClnfniBqOaveGOKsy+ssCwow6VJC7M2PTiom7kH2xpwdIRrqWSAkSf4Nh44vKJk1OFByyVO2QUKnjSogZPL1coDpTeOSq4zGYi95Q1T9xkxkvLw4F7FA3YNC3R1rhHqAWStHTNMNzScp+0sNKRO2/hXCbVM0hpJXYY8t2QeUTerMMlfCeevRvLL+7F0DyFeOL0W2/Jl4LhOiXDTuwAAkE9EJrbq79Ubws1EP/0N0aKtRAVfIPr9vyD6mbz6xxJbX/h9vZEOsaLw069ZLCvTFqd4sKzkwadB1qcwMvBv55u2PGkrAp7GA+NydtMiwqOzlh0PDn7nqKmPVv00LgMQ/7gW+Y4w/TieeOL4pWkIqhNGLCmNXC7fgZLjPOodcFPVfSaYPAWVJxM4D8Z6pOrV2fQlXTtmRAbpKriMal1fid4PQNYstYkl1pqWTplWNuoy3bkmDUasVbQzkT+V3zaieVIuTzzp+rlMV7fwr1pvNmku3z82UH/vYlo8by/RtP/GrpedmMqldwMAQO4TnWXrrmTBRbexk9dr3a73NRJu+Ry9E4ImfoqXwVEsKBWyVkheqyCDDm+r6Q52rXwfVus92MmaF5kK8Vsg7xtXWDjuGh7wamSg8WM5UR0PMuav+2Sdi0lLnCxCHlH6FnY8yukFy35ppqsTM7UV2soTVPeZ4MlTUHlCIXHFEmv+NnUrXRIMh0/ZjmEJmy73ifh6RC5jS4i/OhQx09nM8bMQUaRKK4t1GXiuJw3Zl3KZOpQHjWZjhWPC93OWYNP+kiqbWtT6wKq93+WHsj+jI62nKFYq4moRO3mvTWS3LgAAyDqRvtRUaDxM7tdAeBChtX213sk3WLgU8tN8R4rBUtaIVfBAiBea5jAh2jFrsPBOenHnROWmaudTXwV38848dh9V3km0N3D7zKOOo/WoMwBAzhDtS02nvcXuZXat7P6Kb5jr9AF/REi1bSaqXphYBC+/si/+eSu0GLWgemvqQVPWiMl6G+8LQUHuEKYdJy7vYzeV3U1qz8Wtf85C6U52c9hx7U0qZ7eIaPInWET9PtHN/wufuoXvE/ykMe1Jdv/A7r+y62I3yFH+Zz7vSxyR3ARSCK3aTtq+B0ILAJC/ZG7ZCoRvoPLhWRpg9wbRDXGvEV3/Ff+eJfW29gmLPVBN1r+CvW3p3gJbAweEcW3bb9IOCpNh+IKgMEH+flh/bhrH/myS4BNmyBtG8ItrmPEPOy7BG87vPPszThrX558MYc71iSvoiwXTdhFd+j954w5uptvY8VNNwTR2hdxURY6TbRJnPpclTub1jZP5fbvPAQAA8CMTy1YWxVYmmO/2iJMP59qDjjxFi58M6jKYp3P24A8AAAAAED3RTiNmBfkzRJlTlKdqyegsyxm/6ezez86sqJfpDDnnFnZiKZKnbwgtAAAAAOQ2YyS2AAAAAAAmBhBbAAAAAAARArEFAAAAABAhEFsAAAAAABECsQUAAAAAECGRvfph//79egsAAAAAILe5//776e2339Z76cmJ92zdeae8sgEAAAAAID/IO7EFAAAAADBeyURsYc0WAAAAAECEQGwBAAAAAEQIxBYAAAAAQIRAbAEAAAAARAjEFgAAAABAhEBsAQAAAABESHZe/XCplGjoHb3DFNzGroiOPF9Ix47dQZcu3c6e7Ec3qcM2t956K91zzz20fv2HeU/C3MpuCrtL7AbYvcnuDY5f3n1xmX/fY6d/JYzaf9fxU/ucj6Hf8TaHV+d4mcp5m8Uy84NEtxzSfgAAAAAA4Rn992xdYqHkETatR4iuXCGqWefIpyAuXiU6xJrn/e8nWvXvtedoMOljrLuO6R0AAAAAgPDkxHu2fvITotWrUwstoegmok//IdGx8ax7+ndTVdVu6te7ec9IypPvdTFe2nK89UkAAMhhIhNbly45QioMIsgkfBIvEhXeZbmvav+xIBcGp0zzkCp8Pg622cjzcOIIc06U9ZmPbQUAACBOzi6Q73+axVUtUctrRIPatbB/u3MYhKG4no4eradivQsiBHUNAAAggJwVW0daibZ3EFXqfaHyUb3/OlGVZfFSAkz81hPt/mrCv+HFFP6CWAwKC6lQuSraHTcdtFND3L+QGtr7afemRjp1qpEqeL8qEVDRv7sqHtYdj5sjDXac2tOVh4a4mHTFqawaKfKg4kic6+Sf941FRP/uVulLOE9cDQ1uy4k5T22GK5sQGNYuYwWnG/f2Ca/SbqCGKuNv6sqn/Ha8rvPtstqki8MbXvCcs6tb+Sa1pU7XyYK37Sxc+bPON8fMefH6S9FWKrzJM4fjelPbfmVypespZ3uDlR4AAIBsk7Niq5VH5NLZesdDQwVRrMWxdnVsJ6o104t8Tne1toTx8eadMgQF+zdUdNPWwUEaFNdRQ62bZBCTQUtMatqfXVNlMdXv2U6LF2+nDt4/Wu+2XxTXH42HHWyJUeMu11DmwINld7UJU8d5kLRYFLH4iOm0OrZ3Uq2MvDwwbmqMcRYc/5ZYN/VRijwU19PWumZqM8m2t1FzXbVLqCbSb2J/T1yb5+lAyYQqm8Y/rLuMg9xgi53gwXGf6qR5e4w/11WtiANv+fsC2k/Ot8tq4xeHT/278Kkr37bU+Ladh8C+4FceT/pN1RQ75cTZz08ksTrS7d5H3TSPSoL6lOBXLyLCVHc/Sp5uDQAAIEvkrNiSEblEb7p4naiTj21e7uwWr+KgzTKkM5a/nGwGdV9/Fl6d1Ey1xgIgFhcZxPqPUCttp83uUTo1tiWhljPT2ZsYfA08WMbjLJnn5KG/l8uS8C9eVcNlaaP24lKKqbw5FojKJq9oSKaymgdtrbba2zppu7cAdvqZEKZsBr+wnjK6CIp7cQ2tMgN/ZTXVcUv1ehOVeP3aT46FLWtQ/Tu7wdjxm7Y0hGk7v/NTlcdFJVXXOfXR1x2jahZ/ndLucn6slIpTlclbLyy+KpTAS9+/AAAADJ+cFVuxU0RHWFhFCg8+Yi1QlgTlhjHoiGCoaKWaDh2HZbkZPpXUpPJTTW1q8PVM+/hRuZm2d8qg2k5tnZZYGQmZlC3TeshGvWWj/bLOMNrOELI8rM+ou0/aeR6V8NNGjbR7XzfFqjMsPafX4mvNAwAAkE1yVmxt3k7UWKEtVpr2r7Kb7QixXXrdVf8RfkCvkyEuQ+6SeBopaVZMBi/y8Rd8LQ2MZYmRqR3OXjjECmLlQZ0r038sRBrUAhoZuDto+2LLshOUByqmVTWd1NbQRp01q3gvBHZc1rarDJmUzS+sKmMrHdH5zzhumRK1LV0mn566y4iAOFQevNOvhsB695Cq7VKRrjxW+mKtop07dTtLuxO1tRHNE1NwJmViSuqPUgvVJq1DBAAAkD2yI7Z83tR+663qfe6hkBebSnib4vv1eiy9qF1cLfvLoNHUQdTJO+JX0UjU8qg6JWOaOIHOWj1tI04tPHbWyNj+6sFfr4uSaR7XwCT+MWfxsoTd1B3LwELDA7KVhwpZ69PEJeQBU5Smk34FtdbscdbTBOVBI4NwZzPR1jCLb+y4jqyiPWLhUOlZZcikbIFhuYyyHqsig7hZLBh/9Rep5q/8XOUvCWi/NKSII17/Xuxz9AL5QILaLi3uvuAqjyvP7CNpsDKt0QpUdps752lBGtCnUlDZ1EIxzjMEFwAAREN23iD/bqHeSHDkn4neeotozZrU79sSQfa9/0J0yy0yeDh+o8a0Qb0BcgaZXtxEtAevUQAAAJDDjP7neuJcYae/Uci/+/e/RKdOnaLLl8VPvp2YnM7UqUQrVxKtZudLwQf5PzHAcZzq+4sSlx+s6ArkG4y38i9Hqr6ByG7SbP6dyb/T2RWx//vZiTicw24RO5BTQGwBAADIA8ZQbKXg2kOsxTzpTLqbaHIZuw/x9l3sIe96mKUdCyQljAAAAAAAcotMxNboLZCf8qQzbWe7qS8S3dTMQuvrHOAL7D7NbgW7uewgtAAAAACQ/+TsXyMCAAAAAIwHILYAAAAAACIEYgsAAAAAIEIgtgAAAAAAIgRiCwAAAAAgQiC2AAAAAAAiBGJrtJGXdob5rIwfIzkXTDyy2V/Q9wAAYNjkvNhKusEP96af6XmpwufjwDMeBsukMvTT7qoq2t3O/vItQfURywTtDdb3BUcLyaP5hqEhTN2PaftIPUZYVyMt22i2e2Be26khqvoBAIx7YNkKoriejuKTMblF8SqqoVY6Yka8/iO8V0OrSnh7cR3Vde6kuMbhQXNn5+LgD2dHCecl1ropkZdcR9Uj159dt7nEGLd7/+4qKiyspWa9DwAAmZLfYkueQuXJVrkGfvY03nJz1P7qaZSfhDc10qlTjVTBfklWB+tc9QQr++YJV//ulqdlFc4TV0OD+0nYnKc2rXwU8pO4layXwLB2GSs43bi3T3iVdgM/gRv/QnIe+n3Kb8frOt8uq4XrmB23HEqfl4Z2bT2xzvPNQ9zf2o9TTKtqiFrNqNvXrb5e7gjieVRtHWvf1UixGvYQdN7VERW3KZvkydkOLoOnPoLy7GIebd4ao8ZdpqAWvuen6FMB+XXHY/kFtV97g5Wem/4jrVyPm6k6dipRt4Kdxlj2vRG2u1+f9c2DX16Z4vqjNNixfWyEOwBgXJD7Ykvf+MzNMnHTZ1HE27GWQRocHKSO7Z1UK3dSvoluaoxRC/uJf0usm/r4tly/h2+Wi7dTB/sdrbfsVcX1tLWumdrMTbi9jZrrqqlS7yo4D93VEl8T+3vi2jxPB0pG3aR1PgZbAgZfjX9YdxntG35g3Kc6ad4e419HzbUycHnL38fxdtNWc35HDbVu0oO7q6we4sd03Dudc9LmReVDvi5tnydlC8hDCopLY3Squ09tt7c1U6w00ZYl9Vsp1rhLCeWdndtp8yp9oLiUYqekH3D3YGERqyPd3n3UzYO1GEiCy2DXRwZ5rmyiFqpNDO6KoPM97dNUnSa/AX1f8Gs/ERa1xNfEUbK7vkM/Ka21qpgqq+voVOsRXZ7c6nvDanfBt8+GbIfkygIAgGGR+2JL3/jUTVHdGPVNv7+XOvnYZn1XLuZH38XNbdQuAys1U61+Oq5s8hENHmSQadZqq72tk7abSA1WOhlhPz3XNhN19uqBzAe/sJ4yugiKe3EN8bjpUFlNddRJvd5EJV5VR/p8EbB6cE9ZVvtYybzEk366vEhYe1uOpcqDTOH6CgNGyiTtzCn0dtZRtSuvlVTNwrlWRMJWewpY/J166OuOUTUL5E5pb8lDrNQJF1gGq8yp8uxD5ebt1KkFqSL0+WnyK79WvuJ9X3a87cdio0IJi4DrwEzJSSVI3Z7S03WeNFyMRd8bVrszdpxh+h4AAETAOFyzVUlNSphVU5u6mXqnJHyo3EzbO+VG3k5tndaAMRJkQKrgYazDIxL9yCSskGl4P3gQconYoME4HSPJy7DyoIVIO4uEmMcCyYjAWczDvHswVuMsdfdJ+86jElkDJO3d100xCZhJGTLJM4vGPTWttOuI3hdCnp8yv5nA6bXYli8PYjkz02bOuiTPVKKXMet7w2v3QIaVBwAAGB75K7bU1FAjmRkMNWjI9B8PBg1qrYWIrg7avth6ug58epU1IZ3U1tBGnfG1IGmw47K2VT70tv2k7/L3wy+sKmNiYXDGccuUqG1tMPn01N2IyaSchlR5kAE9YH2RUFkdo8baRn/hoaxiyQOnWH9o507dvs4aoLY2onkyhyiEKcMw6q24fitRY6PVninOt/pRyvx64lH59U59W5TUH1VTmq61igqZQjxFdWaqUFyLnkpUaeRW3xtOu/uSQTsAAEA2yGPLFospfqrurHWmAipknVYT32r5RkqNFc70QGEFtdbscaaj9NosmTpIHnT4MI9mnc1EW8Os07DjOrKK9ojlQKVXSJu6Y86TvoSJJdabxf39CAzLZZQ1MRUZxM2DSHyNm6zTMX9R6Sp/iavulDMLsjMlk3K6cLdfRnlQU1QZWDEE6ResCmRtktlt7pzniIHQZRhOnqUN6xLbQee72od9UuXXE0+876egsqmFYnxduPq+mkL0TN3FpxIl3znW94bT7r5k0A6M+oMANdXolC/ASAgAAIEUVFVVDe3bt0/vBnP+/HmaMWOG3gM5iViEZB06XlkBRhv0PQDABCOsLtqwYcN4XLMFAAAAAJA7QGyNJ4rxIlYwRqDvAQBAIBBbAAAAAAARArEFAAAAABAhEFsAAAAAABECsQUAAAAAECEQWwAAAAAAEQKxBQAAAAAQIXipKQAAAJAlhoaG6Nq1a+pXHMhtJk2aRFOmTKGCggLtE55MXmoKsQUAAABkARFXV69epVtuuUW54QzgYPSQ9rpy5QpdunSJbr755ozba/TfIH9pIdG7hQl3qZzo+p/xgcPsBlUQAAAAYDwjFq2pU6cqB6GV+0gbiSiW9hKRHCXZsWyJ2Br6pd5JcOSfiY4d48OXqnjvQ46nh1tvvZXuueceWr9+vfYBAAAA8o/33nuP7rzzTgitPEMsXG+//bYSXpkw+tOIPmKr9QjRlStENetYUGm/JAqK6OKV+XTo0Ifp/e//AK1aNZ0938+u0HJ3svs9dgAAAEDuImKrsFDGLZBvDA4ORiq2IvtrxJ/8hGj16hRCSxi6SEU3HadP/+F36NixJqJ3H2b3v7L7LLtPsVvBzkxRzmT1Vkt04y/5xP/M7ji7X7G7wS4E/bupqmo39evdEZHNuIA/aK8EQflHPwQAgLwgMrF16RKxkNI7aRBBJuFtqtbzWKK3Fa9fpapPtVP/ZRFlf8JuLbsF7IrYyZPENSfcWCEDHz/RyFONcQ3t1jHvoOj1a29wnVsoJyfF2UAmykjJxiCejTiEdPGkOj6SPGR6roS328m1P4ptFwXDqQtX+H7aXVVFu9t1ncQvDIf2BvYbbjsBMB64eJL27thBOyx3oMc6tvckXdS7Cq9fzwHXuTvk5KQ4D5CJ0oUn3N6TrpSS8aZt73uPgTjj6D1bYyy2hMXbqWNwUJkjBzu2U2etJbhS0L+7igpriVrMuexaqM0ZnO04W4hqR2NQKq6no0frqVjvjikjyctolkPS4jZfrNqriSrFbyzaLhcoXkU11EpHTGH7j/BeDa0q4e3FdVTXuZN2x4/tpp2di2mx3gVgwjJzJT24bRttE/fgSjrfagmuFFw8uZd2tBLVmHPZ1dCrjrCy46whak0SQj104KkuKn/QnFtDMwYu6GPDoGgJPfDAEirSuyBBXoqt/qeJCu/SzljA+vdalgR+ik41qnmtENqbn7GpIe7vCCUlhOJ+aeK10YNv5850A2w/HeELZXuHHqA1lU3ufUVlNdWd6qY+vWtw5dEM6K4y6nxri8NusSTErS/e8mv/uDBIrhPfuF300+5NjXTqVCNVcJgqCeA6J8DKY4ep4PONn85Lcjk96TQ0JJcvXo5u2lWlz/XURzz78f10+c+gHxjCtJ0dr52eqQvBz1/nO15ubzgrXr++4tt/4gynLYtpldzYjdrq6+aRYJUWvfOo2jrWvquRYjXsoUmdFwAmCCJaRHC9kM5KdJHOdhGtfHAdlWkfoWyde19RNp/KBwYoWUrNoOlxdVRG69bpM10Wr73kGLwu0snnjtHAwDF6SlnBetz7Bw44li1t4Tp5IGExc1nqtJ9yWgAq0ejxG0/kn9h6nYjv/dTyGtEgu5YY38vZu6Gim7YaK0IHP1dvCrpRs3jgQSrW4oTt2N5JtY6CoN1VyrzkxMGuidVOcf3R+P4gJ9a4y1cm+FNcSjEzwOrBKj6QxAdKfuo/FaPSEOaX/t07qXnxPBIDQRwe+DY1xuJWsZaYpCdlDKgPzkd3tfizmGNBuLWumdpMkdrbqLmu2hJ5fnWSIu44xVS/x1h5BulofV9Andu420Usgy5rh285Pelsnucunz5VcaqT5u0x6RM1BvYPwS//YfuXP75tx/j3r6C6SFFHrnIHtJFfHfrWq81w2lK6foxOdTsxtbc1U8zq4CX1WynWuEuJ4Z2d22nzKn0gbV4AmEAUTacZRhxpMRMXI0+xwBH/i2epa8AWS8FcPPkCdc2cSfJnaAnKaH55F7VKnC4zmli8BmiFsYo9WE5dz4kAKqIl962kmdpi9sCSMvf+8pn6fIbzPDBfn1/D5yvhKPEeoxk1Jl4+V8KyAHvu2Iy4da5mhp8ozG/yT2zNJmJ9RbV3ydBDVPkoOxZgndRMtbaQ8bEiKPp7qZMHjs16JC7mR/DFzW1845epjoR/HB4A4k/xtc2cUG9Gg2wcPVipwU+cPVD6DMJxLJFW0VpDHd5pMRF0quyOhUFZxKSMQfVhlV2orK6jZq222ts6abt90K9OUsUdRFCdO7sOnjBJ+JXTOeImKI7FNbRKV5xKP12ebYZTZiFd2wl+/SuoLlLVke0flF+/OgxbrwZPHnzbUhBLnvLvp97OOqp2RVpJ1Szyazlfsa1WnWSaFwAmCvZ0oC1ShCQBZWGJtKe6yulBnym+snU6zvmvOkJOrfe6QOdJizBxIu58rWIp4DwvN+a16TO1qOJ4bX+DCEuVnrOuzNcyl+fk5TRik7ZqtempRHWj5wHAJWa8lo3hIANhRSvVdPgIpDCogSmFkBJkgDllrW/xYpfLd/1RJTWp49XUpgZXZ6AKXR+Vm2l7pwyK7dTWmRAkKYmirtMSUM7RYjhlTtd2I+1fqfDNr18dRlWvIqg6qbedBXvMtpY6VG6WsiaLsDFtYwByCSVMUggpQVm/uuhs0JybLdLSraUqW8fhaqi8y2e9l3JZEEAXBhyLXBJltE6lMZ9eVQIvYDF/HpMdseXzQtOREjtFdOR1vcP0HyE6FWNtwn4NTzt+Irq28+jUy9uxU40UaoZPiZtE2P4jrXRKps7Uol6fOCyLiArrbIZAT/nYT+6+VBKPO9RY4R5Y2htCDjQ8YDeoBTkyUHVwffAAR+4ypkbW13RSW0MbdcbX1Wj86sRTfykx1p+gOnd2HTyiM6mu/cppBGomVirGlb51blKaAfnPKn79K6gu0tWRISi/fnXYnqJebTJpS01ldYwaa/kacCsqB1nT6BWsqdoYgAmFnm5bkW6xeRktX0l07Cm3OOk5EFKsyPope/rQCDwl4o7Ri0GReK1cYa1eat2YjzjkfBxQi8JEdD1IK2eepwvOQi7aawuvdPs5TGSWrVtvJfK8zSGQi1ed8DZNHUStFYmF8BWtRB2P8oHZ7BoT/q01RPXs19Th/PWfmjYRF7i4lm/kVtgKWSMii7NYZsjaFDuOhr562hpLTAVt6o6ltjzwIJRYl7WT5nU4677SIet21NqX+LmFVEv+A1gSPPixUtPnVXB97KH6YncZlUux2FimgjqbibbWe2WhT520h4xbrweTMlXtLgmocxuOV9YsVThhkurat5zib6Wzq9sJ64fVNmpKz1mQR3usenelmSL/ynnLrKxUMl0n6YQUypKGb/8Kqos0dRQnoI386rAyoF5tMm5LjUwlJlmvUhDUxgBMBFzrsl6gmQ9uI7NWPRVFSx6gB1eeT0z5sWul+eGsUEVzqfx8a/y8HfKXifeJwGPRo/8iMn7MLFovWkIr9Dov9ZoIe/9Ff7tVAo63ZgaLQ5OeXnvG4o49dVpPUVf5fbQkxDq0fCKLH6KWge440ZVDRNeOqk/1vPUW0Zo1XI8p3rclgux7/4VIXtxaYxbKDodpYgab6mwDAAAAowzeIJ8h8n6wV+fTtjCqMmJkuUXuf64nCfn49HHav/9/5id9osuXHV8/prI+WrmSaDW7EQGxBQAAYAyB2EpPz4Ed1Nqld6icarKxFiwL5KnY0qg3u48SEFsAAADGkCtXrtAdd9yBD1HnGfnzIepQXGd3ld0Vdu+ye8dyv0m4obcdd0N+L/IvuyEJf4l/f+eEl+NeILYAAACMIVevXqWbb76ZpsqUDcgbxCJ5+fJl1XaZkKNiCwAAABi/iIVEBJeILRm4YeHKbaS9RGiJu+mmmzJuL4gtAAAAYAyQAfzatWt048YN7QNyFSOuhiO0BIgtAAAAAIAIyURs5eUb5AEAAAAA8gWILQAAAACACIHYAgAAAACIEIgtAAAAAIAIgdgCAAAAAIgQiC0AAAAAgAiJ7NUP+/fv11sAAAAAALnN/fffrz7bE5aceM/WnXfeqbcAAAAAAHKfvBNbAAAAAADjlUzEFtZsAQAAAABECMQWAAAAAECEQGwBAAAAAEQIxBYAAAAAQIRAbAEAAAAARAj+GnEYHDlyhH71q1/pPZDv3HLLLbRs2TIqLi7WPmA06e/vp+PHj9N7772nfUA+g+sJTBTw6oeI+U//6T/Rn/7pn+o9MB745je/SZ/97Gf1HhhNnn32WfqTP/kTvQdGjaHfEV3tZtdFdK1Xu1eIbrykA6RgzpDe8AfXE5gI4NUPo4LcbKJ2gp//aLqJAawqY8fY1v0Ndte4q4u7ot1ldpfYvcuH32H3W3a/Yfc2u0F2bxFdv8DuPLsBdm+ye4PdOXavcXS/ZvdL7X7O7mfsfsqips/tBPFXxyWcOYfPl3hUfBKvxC/pSHqcrqSv8iH5kXxJHtlJflW+Jf9SjqvOOZLWe/9CdOmfiH7XQjT4vxMNrCJ6/TaiC/8fot+wKHr3L4muPMvxhBBat35FbwSD6wkAN7BsheXdQr1B9J++Q/Sn/0HvjHtu4l4ym9372d1BNGkm0eS7+HcOu1m8zfuTuF9Mns6/RRzmfexuYcfn5RF/+7d/S//xP/5HvQdGkxFbipUYMuJDhIi4i44bkmPshliUiJMwQ3x8SI6zoKHfOXGA8IjYKvwrveMPricwEcA0YhRMWLE1XKY6Ak0h1gNjJZNtccJ19jbb5ldzy//Cj8f/We/4EcIoO+2rRHf+md5JDQaHsUOJrS9+lvvCe+yusI9YZWT7MncLEVHGiUASy464N9m9zq6Xw7OYAqMHxBYAivybRuzfTVVVu6lf7+Ymt+tfEA6Zyjin3RvseHBU7jw7sTiIk29QyUApTiwMlnvvyWQ/lzPnpXIs5vKZvLguLDLNrzzAqIeYLxG9+QGigX/Hd69SdjGiC4uILi4lGlxD9Bt+snmnnsP+OXerv2Ut9jTRtUMstGTKS9oZAABym+jEltx4CwupULuq3aM0ZATd8F35aaB2T/6Unw6aTTb+T0Ty7G3YeBdRgXY8XDiwdlhu+S9Pb2gMxJsevewTrye9x0W7DJcUefcta5YZjTSySq5dF/lAyD4mzvTlIP9QjPf0UmDHmxfXEwB5QmRiq6GilWo6BmlwUFwLxbr1gtCxoriejnZsp8WLt1PHYBNVip/a1nlsIarN4mDUyzdMuWGJfcbwOAshOkg09Bo7/l1rhFEP0QLjz25BQ+Y3T7/0lNBay0nqeF/c4Hg/fj/RBk7T5KOB910CLRMC8n7oL/mY9u9p4rLKfpYZjTSyTc5dF/lAmuvD9G9xX3yf9mSC/NMy3tMLIB+vJwDyhQinEWNUGn/NSiU1NbG88T5du/a7aVeVeeKvIvXAr4/vbkhYAhqM+cllIdDhOabdmxrp1KlGqmD/jKwGldVUd6qb1NCn4jZxDo9SFjZDfBNdpveFzuNE6z+ud/j3Id7nIGr7CePPxOyTQuKX3qH9RE3st0bv+1LmPidjAvK+n1WfKWtpNadxZgSCLoDRSCP75Nh1oeJqoAadRkM7h41vmyBVOj47To+/nX+hvSERVuVpBNdTQB+LjPGeXgD5eT0BkB9EJraq65qpVm7C8VEgDac6ad4e54m/YztR4yZ98+YBorvaWJ/qqHmn+LdTQ0U3bTVWqY4aalXhi6l+j7FeDdLR+vAv1evfvZOaF8+jEr0fFWetJ1a5qdr7Ct6XWYTqLDypys2zgcWUmRbY+LLj/8V/YOFn/Pl3w9N8c3UOjYygvPP+AiMso2I00sgCOXldmDQkntpNRGZbxSlG4aNOfCqtGDXu4ryzgNrUGKMW7d8S0w8qgoirWuJjRymDSzAcPn1sre7f9vSbEOSfEeM9vSDy5HoCIF+ITGxVNumbc3Wb8+SbbnBZXEOr9I25eFUNLTZWJh4gNqs5P6ZkHi2W3/5e6iQ9aImrkKd262YfFv2kL3FUtNZQx9F6HpYYmXKMYKB4gu9c+yzx08A3s7nWTVXYmE3xw8SnGjjtM2uddRj2dEETC76GnSroiMl23scjOXldmDQkHntbHWRsa1ltMyv1XuovLqWYSstZ61jZpKfm5ZpSgk/vC1m8nrx97AnTv9nZ029B/pky3tMDAIwOEU4jaiqbeHBpobrmtuwuQLfXWyln3dzDYsdhhFaUsLB60dwkWfwsY6HD99Y4sjg1xv7ZWH+RBMe5QSxpLxN9/QzRVj1dIFauJt4f6c06Zd457jOesmad0Ugjm+TydWEjQsteZybrHtWBSmpS8VdTmxJi+g9MOP2W7Z1UG9ZylwHpro+g6bfhTsuN9/RSkm/XEwA5TmRiq8q+2coTt5mis560+4+00im9baP866qDBwl5quYnaJnN8GU4Vi6bka4xCYEsUqcN+gmWb2zy10hphZYOF/avhNY/xMLKTDHwufvEksYiS6YHduopxbh/gEhKm15A3iXt/TqN3jai4wtCWLyGUb6M0xhj8vK6sKxr8bzxNdKgLhARXR20fXEn9erIS+qPUgvVJtaGjfR6Cuhj8gcgZmrc1Y+D/L0E9bfxnl4AwdeTvDNvFjvuBJPK2U1XvgCA8EQmtmo6a51pBzWdwU/Ge+qpuLie9shTr/bf1B1LTFV4p/Rk4XAgfIPnJ+zOWh2/OLNAl9PYqtfFJC0EVtMqkk40r3mwUX8dyI+Fx/lGWMY3PHVzZGemEPex0DJ/HahubPxrr6/KdB2GX3pr/pL1nPhLnHxM/gJRFsvLdKZMKXr9h0NQ3iVt0mmUNRAdjOAvm0YjjWyTc9dFOuS8WCIP8byxsKPGCp1OBbXW7KF6a8FjZVMLxfh4RmkFEHh98L7dj+Uv+lQ/DvIPyXhPL4g1/weLKR1vWcNDdPD/+jeiD1wgmnOJaPYb7FhNf6CT6I6t+gwAQFjwBvmwXPowqW+PMSN/g/xk/Rslw32h51X9Ow6Y9nWiO/9c76QGb7weA/RXGXLriwzv47viFP6Va9T8yjOp/i2QX9uvwPlV/no77i9h5Bw7rPaLf0lBvqxgvqTg8VOOt4es7bg/h4v7yznXLH+5htlN3UR0+Zu8rSm4nZP+KDtWU5M+wE4+tcXuphi7+VxcvsdlCVxPYCKQyRvkIbaGwYi/5ZbTyM1d3v6unfrunHx0Vz6RIh/D5SfcG+Je4+1fcRjzRnj+zUXmyACVHgwOY0BUYmvSXHa/x252QlDIdztl+muSiCnjpvE+O/k120oIgZGC6wlMBCC2ImZ8i63hokWaTcGt7HfJ7GgnmF/B8lc/fmEM4YSTG7EopAeDwxjgEltTeUs+eq4/eK7E0G3suA+JECL5ZT/56PkkDhN3d2rHcU2SD6Xzdsg2B9GB6wlMBDIRW3iMA1mCxZEaGC2nvM2+LLK9RbubLScD7BTHxadtxJnpFtuZY5m4cNxyC+cLjC7TBpW75Zb/21kXNOc3RLN/TvSB00SzThLN/CeiGQeIpv89u2aiom8SFf4fRHc0EN12P5/7h0RT7yW6+ePcdT7CXaSIIw3f5iA6cD0B4AaWrWFw5MgR+tWvfqX3QL4jA8OyZcuouDjyl38AH/r7++n48eP03nvvaR+Qz+B6AhMFTCMCAAAAAEQIphEBAAAAAHIEiC0AAAAAgAiB2AIAAAAAiBCILQAAAACACIHYAgAAAACIEIgtAAAAAIAIgdgCAAAAAIgQiC0AAAAAgAiB2AIAAAAAiBCILQAAAACACIHYAgAAAACIkIy+jQgAAAAAAByy/iFqAAAAAACQGfgQNQAAAABAxEBsAQAAAABECMQWAAAAAECEQGwBAAAAAEQIxBYAAAAAQIRAbAEAAAAARAjEFgAAAABAhEBsAQAAAABECMQWAAAAAECEQGwBAAAAAEQIxBYAAAAAQIRk/G3Ea9euqY9SX7lyhW7cuKF9QTaYNm0aFRUV0ZQpU7RPatAWyaAOR06mdegFdZoM+uXIybQOh4aGVD3KrzhANGnSJFV/BQUF2ic16IfJDOf+mPGHqKXiX3vtNZo5c6b60rU0HMgO0pEvXrxIb7zxBt11111pGxJtkQzqcORkWodeUKfJoF+OnEzrUMTV1atX6ZZbblEurLgYz0idiGi6dOkS3XzzzWnrBP0wmeHeHzP+ELUkMnv2bJo1axYqPstIfUqHFidPEulAWySDOhw5mdahF9RpMuiXIyfTOhShMHXqVOUgtBykHkR4Sp2IEE0H+mEymfZDm4xq8N1336XCwkK9B6JAGlGePtKBtggGdThywtahF9RpMOiXIydsHYoFQqw3IBkRXGGmVdEPgxnO/TFjuTp58mS9BaJA6lduFGFAW/iDOhw5mdShF9SpP+iXIyeTOoRFy59M6gX90J9M+qEBtsFUHN6kKlXcpsPaLwx9u2jFil3Up3cBAGBCgXtgei6epL17T9JFvQtCkqd9a2RiSwqtxYjjVtCu4dZAVBWYlMewwukwbao+Q4+dvU7Xr1+nPau1d6bkUsdw1cUmLuEokEvlzwY+/WlE/T4M460OI6Bv1wpXm6wwDeKtO/0AldHD03jAenBUbsJVQLa5SCf37qAdEEsjw+/eNk7vdyO3bC19jM6yGBFBcv3sBto3d5QG8Uxw5fExOlMd4mbbd5bO0AKaW6L3xwMlm+kFLv9SVR97aLj6ccJj9yflXqDN46mf5BkitObu22C1SRst2DI3IbgMchPXD1DDfnjKQ5QQrSZqs/psG+3Pvft0PnHxLHVROf/rorNQWyAE2Z1GLJnL8sRCbm7xp6nE07/rKVQp2D7adf8WOnFiC81lP3WTdJ2rBZxWvLs2efzi4UJYGLTgOPN1rZx9zz9Mm+ZyfujbVC3+nOZh15OzDqfzE0/Su+9TruSyjyEqv5to0wonP5sOc37j28nH4/6Cq96C2senXcct3GfsMqr64X5yGHUYLYdp5xaix57eTAm9u5r28DVO+9oS15fU69x9tOHsRBPGfdS2j+vnrPvhavUeZ99tEXTf15w+6LjEw6nTz13+rn4c4h48Drh4touofDnNnzFAXUZtqWnBA3RALF47HHegJ4V/HMdKlvDroQM79tJJiLjUfUv104B7aw6SXbF1eD99e2mMypwdFiyd9DXzNCVWr/tZXHAF3b9lQfwpq21BJ3etEtr8tLG4XKcXNvcosbOgzQlz9rEzVG1qkQedzvXiLzeLgDSckMGIKDwh6Qad79ysTX6uv7CZVm9+wQkjrm0BbdkZplU95apu8yn7GHPiDMWeljJ9nr5dfT+R2TZi1BxX5ZYwIgCk3sK0j7ddx8kop4WPucAd0awH+C07uXZEIOmBXS4G1GF0iAV66Qaq9lZL/BoX9tH9E1JoMX1ttO9EsIW+JOi+Fu+D4m/uB/Iwpkxk8XP2rB7mPTivuUhKa80torL55TTQdTYxlThwnmbet422bWNXU05drQecPhjkryiiJSvY71Xt0/MqdZWvoCVFzu64x3s/VYYOIUTf8r235iYjF1t2RX09RmdZmKjrWk3DacuQqUC5+Snrl/g7lWKesFyoG+hjtFUfKKneQEu/rc3eln9gGvpwWjI531bY1d8mOnM28xtKmLKPNmagKovxgG5tq4OMPZCtXk+f5xo7ezhk+4xXtPAxA46IcVVFJZvpaRFNk+fSvg1PJwZ21OHYwnfuDY+xkBj3IiCA+AOwD0H3NbsPmvuBCDfy9M2R3oPzET2FyFqL62Y+lQ9YU4kztb8gx+g8XbjA20H+BvHrelXVW8+rHPv8wBYbf3jvp2LoEP8wfcvv3pqjF3n21mxJBSVVhKcS1ZP6atqjttfTflWJI1SivmmkQYk5fQMKc77ckNSTsQ5jOkPGZLnsIOcomeuaSAdRoyxY+6jNe4N1XeN8Q968h85u2Edzc3meIQqC6kfI1n1tOPfgPEamEAcGjtFTakqwlYWXNZU4bMpofnkXvdrTQ692ldNE0lopGUd9K3vTiLIWqo3iVhvnIt9CSbNtfIFvUhOvIjzO0mNLLSVqxJrn3L62fXTi8+uTKzkojZTo6ZuvbaaSTM63FLTKj7OZyDPj8rcxYVKVPR9Q08RcD6tDto/BFuHqSdoSmen28wruW2qWRRZo3++/dgV1mGVW01aZvXVZrZxrnDZUOxZHTcnmp+mxM9UTbN2brh/PHy4d3qT3g+5rfpRU0wby3C+HdQ/OZ2QKcYDKa/SUoJ4WdE0lGmQ6UCxa0/W+IcC/bPlKOt/aSudXLg+2RE4kMu1b5t5qX/Q5RHbXbK3mp0c1jSIL2Zw1LPKXf8oEKE7WtnAF8pWv/azpFhZrX/u8YzJcsavMde5cWefk++dDAWnoo3G4wRJzwl+nWPyvkUKeL3lbkIjj/s4FzhNgfNrI429jl4vFqG/ZRwsZhJUpVsoScjC2606EhJoyc9dbcPswrnYdJ4Ocqz+Jk/7OA7yqIG29lfUvZoBDHUaKrDtSVitTx86f3vmsbyuhzfxE6PuXiuMYVT/WfUpcNbGwD7qvBeKsH7Tvl5sOh7yHjhfUFOJKWm6rITOVKNOCcYsXu1aimgeWkJo9DPK3KZpL5TNnqrVgQAjRt3zvrblJRh+i/tnPfkYLFy7UeyAqTp8+TR/5yEf0nj+j0hYizu4nejqHO3AQqMORE6YOveAekZqc6Zd5TJg6fO+990b/UzPyV4fPEd3nFVJB/l56DtCOF2bSg+nCZYHBwUH12Z5U5Hw/HON7ayb3x4w/RA0AAACA7KMWxq+IXmiBsSEjsSVfvJZFaiA6wtbvqLRFyWZ6IQ8tMqjDkTPcesE9Ipic6pd5Sth6ke//hfnYclYpWkIP+E4PBvh7KFu3jdaNwmKtsPWS8/1wDO+tw6mXjMSWfEX9/Pnzeg9EwVtvvUXTpk3Te8GgLYJBHY6csHXoBXUaDPrlyAlbhyK2ZCoRJHPlypVQH6NGPwxmOPfHjMTWjBkzVOWLw5NXdpH6fOONN5QrKkpvSEZbJIM6HDmZ1qEX1Gky6JcjJ9M6nDJlihJb4kbdwpWjSD1cvnxZuZtuukn7BoN+mEym/dAmowXywrVr1+jnP/85Xbx4EZ04i8hfU9x5551qwZ3cKMKAtnCDOhw5w6lDL6hTN+iXI2c4dSj1JvV448YN7TOxMdYsEVphLFsC+qGb4d4fZYF8xmILAAAAAACEA3+NCAAAAAAQMRBbAAAAAAARMkkWfF1wfRETAAAAAACMFNFXorMmyZ+B/vSnP9XeAAAAAAAgG4i+kr+KVWKrv79fewMAAAAAgGwg+kp01qR33nmHWltb6dy5c/oQAAAAAAAYCaKrRF/97ne/o0nyHg15adnTTz+tDwMAAAAAgJEgukr0leisyTNmzPhLmU+Ul5b94he/oJKSErr99tt1UAAAAAAAEBaxaH3zm9+kF198UWkroWDevHnx18KKyJo5cybV1NRQcXExffSjH6Xp06frowAAAAAAwIv81aEshpc1WjJ1ODAwQL/97W/1URZb8+fPHzKv4ZdfeZX/+973PvURSnHyevqJCj5PAAAAAIQj7GeAxiPyegeZJbx69apaoyW/pj4KCgro/wVbasxuZNU5HQAAAABJRU5ErkJggg==;" vertex="1" parent="1">
          <mxGeometry x="-628" y="510" width="338" height="296.52" as="geometry" />
        </mxCell>
      </root>
    </mxGraphModel>
  </diagram>
</mxfile>
